<?xml version="1.0" encoding="UTF-8" standalone="no"?>
<!DOCTYPE svg PUBLIC "-//W3C//DTD SVG 1.1//EN" "http://www.w3.org/Graphics/SVG/1.1/DTD/svg11.dtd">
<svg xmlns="http://www.w3.org/2000/svg" version="1.1" viewBox="0.00 0.00 872.00 612.00">
<g stroke-width="2.00" fill="none" stroke-linecap="butt">
<path stroke="#ffa2b7" vector-effect="non-scaling-stroke" d="
  M 609.81 61.95
  Q 609.57 62.17 609.19 62.16
  Q 608.92 62.16 608.61 61.93
  Q 581.02 40.86 549.15 27.07
  Q 549.00 27.00 548.84 26.93
  Q 527.25 17.78 504.67 11.50
  C 504.19 11.37 503.62 11.39 502.99 11.22
  Q 477.70 4.53 450.74 2.74
  Q 448.80 2.61 441.25 2.00
  Q 433.99 1.41 415.58 1.64
  C 411.58 1.69 407.00 2.31 402.26 2.66
  C 359.09 5.81 314.97 19.03 276.85 40.62
  C 250.09 55.77 225.53 75.52 204.88 97.04
  C 203.49 98.49 202.01 100.39 200.46 101.98
  C 194.49 108.08 189.36 115.34 184.03 122.00
  C 175.95 132.11 166.41 146.96 159.55 159.68
  Q 139.50 196.84 130.09 238.16
  C 129.14 242.35 128.02 247.01 127.42 251.07
  C 126.00 260.71 124.64 269.50 123.54 281.47
  C 123.28 284.22 123.45 287.55 123.13 290.61
  C 122.17 299.75 122.58 309.19 122.76 318.37
  Q 122.76 318.37 122.75 318.38
  Q 122.60 318.38 122.45 318.39
  A 0.13 0.13 0.0 0 1 122.32 318.25
  Q 122.35 317.66 122.10 317.49"
/>
<path stroke="#ffa2b7" vector-effect="non-scaling-stroke" d="
  M 702.68 176.62
  Q 702.10 176.94 701.99 176.92
  Q 695.73 175.27 689.45 174.61
  A 1.36 1.35 -10.2 0 1 688.39 173.88
  C 654.07 106.50 595.43 54.24 523.83 29.38
  C 397.43 -14.51 255.00 31.87 181.35 144.60
  Q 131.15 221.43 133.41 314.85
  C 133.45 316.36 133.11 317.10 132.05 318.05
  Q 126.96 322.64 122.85 328.16"
/>
<path stroke="#ffa2b7" vector-effect="non-scaling-stroke" d="
  M 707.75 188.94
  C 698.97 189.49 688.90 203.38 682.93 209.94
  Q 678.72 214.57 669.57 227.53
  Q 669.45 227.71 669.37 227.97
  C 669.07 228.98 668.35 229.25 667.69 229.91
  Q 665.87 231.75 666.30 229.20
  C 666.64 227.26 667.60 224.91 667.74 222.91
  Q 667.78 222.36 668.07 221.88
  Q 668.86 220.61 668.66 219.12
  A 1.03 1.02 -28.3 0 1 668.90 218.34
  Q 669.78 217.34 669.70 216.00
  Q 669.67 215.45 669.95 214.98
  Q 670.73 213.63 670.72 212.07
  Q 670.72 211.57 670.93 211.12
  C 672.33 208.20 672.89 204.39 673.61 201.23
  Q 674.38 197.90 671.24 197.56
  Q 670.67 197.50 670.24 197.88
  Q 669.52 198.51 668.60 198.35
  A 0.79 0.78 12.9 0 0 667.70 198.91
  Q 667.53 199.55 667.05 199.32
  A 0.65 0.64 -49.9 0 0 666.40 199.38
  Q 664.79 200.55 660.23 204.28
  C 655.71 207.97 653.52 211.03 650.13 214.69
  C 649.04 215.87 648.35 217.23 647.29 218.50
  C 643.35 223.16 639.87 228.32 636.32 233.29
  Q 635.97 233.78 636.44 234.15
  Q 636.66 234.32 636.97 234.36
  Q 637.41 234.42 637.35 234.86
  Q 637.18 235.90 638.14 236.56
  Q 638.57 236.84 638.92 236.48
  Q 640.14 235.25 640.77 233.65
  Q 640.94 233.22 641.31 232.93
  Q 642.29 232.16 642.69 230.97
  Q 642.82 230.58 643.09 230.26
  L 652.97 218.37
  Q 653.34 217.92 653.88 217.70
  L 655.52 217.01
  A 1.09 1.09 0.0 0 1 657.03 218.07
  Q 656.89 220.94 656.30 223.83
  C 656.05 225.04 655.21 226.29 655.29 227.87
  A 1.39 1.35 63.2 0 1 655.01 228.76
  Q 654.25 229.75 654.29 230.99
  Q 654.31 231.48 654.06 231.91
  C 653.42 233.05 653.49 235.28 653.00 235.90
  A 0.49 0.46 76.5 0 0 652.91 236.06
  L 628.51 321.36
  Q 628.42 321.67 628.73 321.59
  L 641.12 318.47
  Q 641.65 318.34 641.66 317.80
  L 641.69 316.91
  A 1.40 1.38 62.1 0 1 641.90 316.21
  C 642.61 315.05 642.48 312.84 642.98 312.26
  Q 643.27 311.93 643.38 311.50
  Q 653.50 274.52 658.10 259.33
  Q 662.16 245.95 668.87 235.77
  Q 670.08 233.92 670.58 232.99
  Q 670.82 232.55 671.19 232.19
  Q 672.34 231.08 672.86 229.66
  Q 672.91 229.51 673.07 229.51
  Q 673.20 229.51 673.28 229.35
  C 673.81 228.28 675.04 227.07 675.81 226.11
  A 0.25 0.25 0.0 0 0 675.74 225.74
  Q 675.59 225.67 675.62 225.51
  Q 675.64 225.41 675.74 225.38
  Q 675.98 225.29 675.83 225.58
  A 0.09 0.09 0.0 0 0 675.97 225.68
  C 680.73 220.14 684.67 214.52 691.00 210.58
  Q 692.46 209.66 694.95 210.34
  Q 695.34 210.44 695.37 210.85
  Q 695.60 213.99 695.25 215.24
  Q 692.57 224.56 689.66 233.81
  Q 683.39 253.75 677.32 273.76
  Q 674.08 284.42 671.54 295.27
  C 670.37 300.28 669.01 308.12 671.61 312.80
  Q 671.84 313.22 672.28 313.41
  C 676.57 315.32 681.58 310.29 684.48 307.22
  Q 690.52 300.83 695.87 293.88
  Q 700.06 288.45 706.13 278.87
  A 0.43 0.41 52.8 0 0 706.17 278.50
  L 704.89 274.96
  A 0.19 0.18 53.4 0 0 704.57 274.91
  Q 697.77 283.61 691.14 292.18
  Q 689.72 294.01 688.08 295.69
  C 687.17 296.63 686.32 296.56 685.10 296.68
  Q 684.62 296.73 684.59 296.25
  C 683.93 287.96 688.08 276.59 690.92 267.56
  Q 698.99 241.87 707.19 216.21
  Q 709.23 209.83 711.46 199.76"
/>
<path stroke="#ffa2b7" vector-effect="non-scaling-stroke" d="
  M 722.53 236.37
  Q 716.17 253.24 712.63 272.02
  C 711.17 279.81 705.86 308.82 722.76 301.73
  Q 726.99 299.95 730.34 297.65"
/>
<path stroke="#ffa2b7" vector-effect="non-scaling-stroke" d="
  M 731.13 306.80
  L 720.31 314.39
  A 2.21 2.21 0.0 0 0 719.37 316.12
  C 715.65 410.04 668.62 496.16 590.72 548.69
  C 515.04 599.72 417.97 612.95 330.97 582.98
  C 263.27 559.65 206.20 512.56 171.06 450.01
  Q 170.61 449.21 170.18 448.74
  Q 169.44 447.92 168.94 447.81
  Q 162.08 446.23 155.26 443.97"
/>
<path stroke="#ffa2b7" vector-effect="non-scaling-stroke" d="
  M 145.60 422.62
  Q 145.49 422.01 145.97 421.25
  Q 165.11 390.87 168.22 355.01
  Q 168.97 346.36 166.89 338.04
  Q 166.53 336.59 165.80 335.10
  C 163.95 331.32 161.27 327.17 156.30 327.23
  C 144.01 327.37 133.00 338.50 126.10 347.60
  Q 125.71 348.10 125.06 348.31"
/>
<path stroke="#ffa2b7" vector-effect="non-scaling-stroke" d="
  M 727.69 265.66
  Q 725.74 272.81 726.76 279.00
  Q 727.24 281.93 729.28 282.22"
/>
<path stroke="#ffa2b7" vector-effect="non-scaling-stroke" d="
  M 191.02 141.99
  C 178.44 159.53 167.28 181.14 159.35 202.06
  Q 139.34 254.79 140.48 311.05
  A 0.09 0.09 0.0 0 0 140.62 311.13
  L 147.72 306.81
  A 0.49 0.47 74.4 0 0 147.94 306.40
  Q 148.10 214.85 200.00 141.72
  C 264.30 51.13 378.62 8.70 486.62 32.62
  C 555.67 47.91 617.05 89.62 656.64 148.35
  Q 663.37 158.35 672.22 174.43
  Q 672.33 174.63 672.56 174.61
  L 681.64 174.05
  Q 681.80 174.04 681.72 173.89
  Q 657.89 127.62 619.28 92.73
  C 614.34 88.27 609.61 83.80 604.29 79.79
  C 598.37 75.34 592.26 70.64 586.38 66.73
  C 481.73 -2.96 342.88 3.14 244.94 83.20
  C 228.98 96.25 213.16 112.28 200.26 129.42
  Q 195.57 135.65 191.02 141.99"
/>
<path stroke="#ffa2b7" vector-effect="non-scaling-stroke" d="
  M 453.42 231.97
  C 454.38 230.98 454.74 229.59 455.63 228.64
  C 457.71 226.42 459.50 223.71 461.45 221.76
  Q 472.03 211.25 486.00 205.69
  Q 487.48 205.10 489.18 205.02
  Q 489.76 204.98 489.61 205.54
  Q 488.31 210.34 486.89 215.09
  Q 472.06 264.83 456.85 314.46
  C 452.93 327.25 449.35 340.68 443.87 352.89
  C 441.41 358.35 438.04 362.40 433.12 365.89
  Q 429.31 368.61 427.98 369.19
  Q 425.99 370.06 426.29 371.84
  A 1.04 1.02 48.9 0 1 426.26 372.35
  L 425.26 375.45
  Q 425.08 376.03 425.69 375.99
  Q 426.92 375.91 427.50 375.02
  Q 427.68 374.73 428.02 374.76
  Q 428.61 374.80 429.39 374.37
  Q 436.77 370.29 446.03 367.11
  Q 450.15 365.70 454.66 365.15
  C 459.05 364.62 464.30 364.47 468.88 363.11
  Q 469.47 362.93 469.66 362.35
  L 471.56 356.60
  Q 471.77 355.95 471.12 356.14
  L 467.57 357.15
  Q 467.13 357.28 466.67 357.29
  L 462.94 357.32
  Q 462.45 357.33 462.02 357.07
  Q 460.51 356.13 458.75 356.41
  Q 458.24 356.49 458.23 355.97
  Q 458.17 353.04 458.98 350.24
  Q 469.13 315.18 479.61 280.22
  C 480.24 278.12 481.83 274.88 481.73 272.74
  Q 481.71 272.29 482.12 272.10
  Q 483.01 271.66 483.42 272.59
  C 488.05 283.08 490.39 296.50 491.28 307.00
  Q 492.72 324.14 494.53 341.24
  Q 495.91 354.42 499.41 367.17
  C 503.96 383.79 515.10 395.82 533.40 386.16
  Q 535.17 385.23 536.28 384.05
  Q 536.49 383.83 536.78 383.76
  Q 536.93 383.73 537.07 383.70
  Q 537.34 383.63 537.58 383.42
  C 544.69 377.32 551.61 367.72 552.41 358.10
  C 552.53 356.62 551.84 355.32 551.36 353.94
  A 0.88 0.87 -6.5 0 0 550.60 353.34
  C 549.05 353.20 547.88 352.95 546.60 354.04
  Q 544.09 356.18 542.86 359.29
  Q 541.01 364.00 539.25 368.75
  Q 537.18 374.32 532.84 378.42
  Q 530.58 380.55 527.54 380.93
  Q 523.74 381.41 521.76 380.25
  Q 517.36 377.67 514.07 371.70
  C 513.72 371.05 513.70 370.23 513.09 369.65
  Q 512.75 369.33 512.75 368.86
  C 512.73 367.67 512.04 366.93 511.78 365.99
  C 508.79 355.27 507.24 344.09 506.54 333.32
  Q 504.87 307.44 502.57 286.25
  Q 501.46 275.96 497.50 265.52
  Q 497.33 265.06 496.95 264.75
  Q 496.50 264.38 496.55 263.83
  Q 496.59 263.40 497.13 262.87
  C 499.01 261.01 500.44 258.83 502.27 257.03
  C 504.95 254.40 507.00 251.39 509.59 248.69
  C 511.78 246.42 514.25 243.03 515.58 241.42
  C 526.64 228.03 537.03 214.05 547.54 200.22
  C 548.96 198.35 550.79 196.53 552.33 194.60
  Q 554.61 191.74 555.99 190.44
  Q 561.78 184.96 568.62 180.79
  A 2.18 2.16 80.6 0 0 569.60 179.41
  L 569.88 178.10
  Q 570.07 177.23 569.24 177.57
  Q 552.73 184.35 537.35 185.77
  C 536.68 185.83 536.10 186.09 535.46 186.25
  Q 534.91 186.39 534.36 186.30
  Q 534.03 186.25 533.70 186.30
  A 0.63 0.63 0.0 0 0 533.23 187.19
  Q 533.75 188.32 532.86 189.11
  A 1.22 1.20 70.4 0 0 532.45 190.00
  Q 532.40 191.74 531.52 193.19
  Q 531.18 193.75 531.84 193.75
  C 535.47 193.75 538.37 192.23 542.19 192.80
  A 1.66 1.65 -70.8 0 1 543.38 195.27
  Q 541.77 198.04 539.89 200.66
  Q 526.22 219.78 511.39 238.00
  Q 510.73 238.81 509.13 240.54
  C 507.18 242.65 505.51 245.14 503.70 247.04
  C 501.05 249.83 498.47 253.13 496.04 255.65
  C 493.83 257.94 490.27 262.30 487.59 263.74
  Q 486.75 264.19 486.49 264.88
  Q 486.34 265.27 485.93 265.33
  Q 485.35 265.41 484.85 265.74
  Q 483.78 266.45 484.15 265.22
  L 499.77 213.33
  A 1.13 1.08 74.8 0 1 500.01 212.89
  Q 500.80 212.05 500.68 210.89
  A 1.19 1.19 0.0 0 1 500.99 209.97
  Q 501.77 209.14 501.71 208.02
  Q 501.69 207.52 502.01 207.15
  Q 502.77 206.27 502.75 205.16
  Q 502.75 204.68 503.06 204.31
  C 503.78 203.43 503.70 202.32 504.05 201.51
  Q 504.68 200.04 505.27 198.53
  C 505.70 197.46 505.59 196.37 506.53 195.30
  A 0.91 0.89 -32.2 0 0 506.73 194.46
  Q 506.46 193.46 507.25 192.97
  A 0.43 0.43 0.0 0 0 506.98 192.18
  Q 505.38 192.34 503.98 193.06
  Q 503.53 193.29 503.02 193.29
  Q 501.36 193.28 499.93 194.08
  Q 499.47 194.34 498.94 194.31
  C 497.68 194.24 496.62 195.06 495.63 195.30
  Q 493.69 195.75 490.61 196.87
  C 478.93 201.12 468.33 206.66 460.16 215.15
  Q 445.32 230.56 439.72 252.07
  C 438.46 256.91 436.06 267.05 441.11 271.44
  Q 441.49 271.77 442.00 271.79
  C 447.41 272.00 450.34 264.15 450.69 260.02
  Q 450.87 257.94 449.64 253.58
  C 447.87 247.31 448.62 243.31 450.83 236.97
  Q 450.98 236.56 451.26 236.22
  Q 451.68 235.72 451.80 235.08
  Q 451.88 234.66 452.14 234.32
  Q 452.68 233.63 452.93 232.81
  Q 453.07 232.33 453.42 231.97"
/>
<path stroke="#ffa2b7" vector-effect="non-scaling-stroke" d="
  M 618.24 303.11
  Q 621.12 300.93 618.99 297.81
  Q 618.53 297.14 618.57 296.98
  Q 618.99 295.04 617.89 296.65
  Q 610.84 306.99 601.50 315.30
  A 1.70 1.70 0.0 0 1 598.67 313.95
  Q 598.86 310.05 600.00 305.48
  Q 609.86 265.82 622.50 226.95
  Q 622.60 226.64 622.66 226.33
  Q 622.76 225.83 623.05 225.41
  Q 623.79 224.37 623.75 223.12
  Q 623.73 222.61 624.04 222.21
  Q 624.78 221.27 624.74 220.11
  Q 624.72 219.60 625.03 219.19
  Q 625.77 218.18 625.72 216.96
  Q 625.70 216.44 626.02 216.02
  C 626.73 215.11 626.67 214.13 626.93 213.32
  Q 628.25 209.26 629.60 205.21
  A 0.26 0.26 0.0 0 0 629.23 204.90
  L 626.17 206.46
  A 1.02 1.01 -4.7 0 0 625.67 207.04
  Q 625.46 207.65 625.09 207.47
  Q 624.58 207.22 624.11 207.54
  Q 623.57 207.90 623.47 208.49
  Q 623.41 208.82 623.26 209.13
  L 621.17 213.34
  Q 620.95 213.77 620.47 213.83
  Q 614.04 214.59 607.97 216.98
  Q 607.26 217.26 606.57 217.59
  C 594.54 223.26 586.59 232.65 578.21 244.95
  Q 557.01 276.08 547.83 312.63
  Q 546.08 319.60 545.39 326.75
  C 544.90 331.85 545.07 347.08 554.01 344.49
  Q 557.84 343.38 562.04 339.79
  Q 568.06 334.65 573.09 328.55
  Q 578.72 321.72 583.60 314.32
  C 584.79 312.53 586.77 310.77 587.85 308.44
  Q 587.93 308.27 588.11 308.34
  L 588.12 308.34
  Q 588.30 308.41 588.24 308.59
  C 587.11 311.85 586.49 315.39 585.50 318.43
  Q 583.84 323.57 581.81 330.76
  Q 580.96 333.80 582.28 336.28
  A 0.84 0.82 75.4 0 0 583.03 336.73
  C 584.42 336.72 585.47 336.90 586.77 336.32
  C 595.09 332.61 602.63 324.19 608.20 316.86
  Q 612.99 310.56 617.63 304.15
  Q 617.77 303.95 617.83 303.73
  A 1.16 1.15 78.6 0 1 618.24 303.11"
/>
<path stroke="#ffa2b7" vector-effect="non-scaling-stroke" d="
  M 376.16 363.17
  Q 379.17 361.01 377.13 357.90
  Q 376.64 357.15 376.69 356.52
  Q 376.71 356.20 376.39 356.20
  Q 376.21 356.20 376.10 356.36
  Q 369.04 366.77 359.52 375.31
  A 1.70 1.70 0.0 0 1 356.68 373.96
  Q 356.88 369.92 358.05 365.22
  Q 366.54 331.17 377.17 297.74
  Q 382.34 281.48 387.57 265.22
  A 0.23 0.23 0.0 0 0 387.27 264.93
  Q 385.22 265.68 383.55 267.05
  Q 383.19 267.35 382.73 267.34
  Q 382.43 267.33 382.16 267.48
  Q 381.86 267.66 381.62 268.26
  Q 380.84 270.32 379.62 272.23
  Q 379.36 272.64 379.44 273.13
  Q 379.53 273.72 379.01 273.77
  Q 372.06 274.52 365.54 277.16
  Q 364.84 277.45 364.15 277.78
  C 353.40 282.93 345.34 292.06 338.96 300.96
  Q 322.69 323.68 312.67 349.76
  Q 307.29 363.77 304.42 378.50
  C 303.07 385.40 302.85 391.73 304.33 398.60
  C 305.62 404.61 309.38 406.01 314.76 403.34
  C 320.00 400.74 325.48 395.53 329.39 390.24
  C 330.93 388.17 333.03 386.11 334.33 384.37
  Q 336.96 380.86 339.62 377.38
  Q 339.83 377.09 339.78 376.87
  Q 339.70 376.58 339.93 376.38
  Q 341.55 374.93 342.52 373.01
  Q 342.72 372.60 343.09 372.32
  Q 345.07 370.85 345.56 368.26
  Q 345.58 368.14 345.70 368.18
  L 345.94 368.26
  Q 346.29 368.37 346.17 368.71
  C 345.10 371.91 344.51 375.36 343.53 378.38
  Q 341.83 383.57 339.81 390.76
  Q 338.98 393.75 340.23 396.19
  Q 340.46 396.63 340.96 396.68
  Q 343.44 396.88 344.14 396.64
  Q 347.25 395.56 352.02 391.94
  C 356.21 388.76 361.76 382.66 365.58 377.66
  Q 370.75 370.90 375.69 363.97
  Q 375.80 363.82 375.84 363.64
  Q 375.92 363.35 376.16 363.17"
/>
<path stroke="#ffa2b7" vector-effect="non-scaling-stroke" d="
  M 294.01 367.12
  Q 294.07 367.11 294.13 367.08
  Q 294.22 367.03 294.28 366.89
  Q 304.38 344.12 306.31 319.26
  C 306.94 311.09 306.06 299.42 299.12 293.87
  C 293.42 289.31 283.04 294.77 278.11 298.33
  C 266.72 306.56 258.40 319.42 251.90 331.94
  Q 241.73 351.54 236.54 373.03
  Q 233.28 386.55 232.79 395.50
  Q 232.47 401.54 233.58 407.48
  C 237.24 427.05 254.64 420.03 264.12 411.37
  C 276.73 399.85 286.73 383.45 293.69 368.50
  Q 293.92 368.02 293.88 367.26
  Q 293.88 367.15 294.01 367.12"
/>
<path stroke="#ffa2b7" vector-effect="non-scaling-stroke" d="
  M 220.38 311.45
  Q 219.43 311.00 218.88 311.70
  Q 218.64 312.01 218.28 312.17
  Q 217.54 312.49 216.37 313.38
  C 204.57 322.34 196.18 335.99 189.51 348.95
  C 182.39 362.81 176.32 378.34 172.18 393.73
  C 169.85 402.39 163.64 431.47 173.52 436.70
  C 182.15 441.26 199.71 424.12 205.26 418.51
  Q 210.16 413.55 219.44 402.24
  Q 219.78 401.83 219.72 401.31
  L 219.15 395.76
  A 0.47 0.47 0.0 0 0 218.30 395.53
  C 213.49 402.06 196.02 424.22 186.20 419.16
  Q 185.78 418.94 185.76 418.47
  Q 185.74 417.61 185.14 416.98
  A 1.52 1.47 -71.3 0 1 184.73 416.11
  C 184.54 414.62 183.83 413.27 183.71 411.87
  Q 183.10 404.10 183.90 398.12
  Q 187.58 370.65 199.25 343.77
  C 202.23 336.89 205.60 331.12 211.17 326.20
  Q 211.51 325.91 211.95 325.83
  Q 212.69 325.69 213.12 325.14
  A 1.22 1.21 14.5 0 1 213.91 324.68
  Q 216.46 324.28 219.01 324.72
  Q 219.58 324.82 219.93 325.28
  Q 220.25 325.70 220.76 325.69
  Q 221.25 325.68 221.63 326.00
  L 223.68 327.76
  A 0.37 0.36 41.9 0 0 224.17 327.74
  Q 224.46 327.45 224.60 327.92
  Q 224.72 328.37 225.13 328.59
  Q 230.69 331.54 234.72 326.98
  Q 239.36 321.73 238.51 314.26
  Q 237.74 307.58 231.26 307.72
  Q 227.53 307.80 222.82 309.72
  Q 222.68 309.78 222.66 309.93
  Q 222.63 310.13 222.58 310.31
  A 0.19 0.19 0.0 0 1 222.31 310.42
  Q 221.32 309.97 220.67 310.73
  Q 220.58 310.84 220.60 310.99
  L 220.63 311.26
  Q 220.68 311.58 220.38 311.45"
/>
<path stroke="#ffa2b7" vector-effect="non-scaling-stroke" d="
  M 179.50 449.75
  C 253.41 574.79 406.23 624.32 539.98 568.16
  C 581.23 550.84 621.00 520.86 648.56 486.56
  C 652.52 481.63 659.68 472.60 664.58 464.83
  Q 666.79 461.33 669.00 457.82
  Q 709.02 394.10 712.91 318.56
  A 0.12 0.12 0.0 0 0 712.75 318.44
  L 703.64 321.87
  A 0.43 0.43 0.0 0 0 703.37 322.24
  Q 698.68 390.98 662.84 449.44
  Q 660.76 452.83 658.70 456.23
  Q 656.39 460.05 654.38 462.91
  C 633.48 492.62 606.86 518.71 576.12 538.14
  C 520.11 573.55 454.59 588.39 388.82 579.51
  Q 331.57 571.78 281.93 541.73
  C 276.74 538.59 271.40 535.49 266.60 532.09
  Q 225.88 503.30 197.22 462.45
  C 194.59 458.70 191.89 453.96 189.09 449.81
  Q 188.55 449.02 187.60 449.02
  L 179.93 449.01
  Q 179.06 449.01 179.50 449.75"
/>
<path stroke="#ffa2b7" vector-effect="non-scaling-stroke" d="
  M 570.69 321.49
  Q 571.76 320.75 572.73 319.88
  C 584.67 309.15 591.50 292.23 596.36 276.08
  Q 602.11 256.97 607.89 237.87
  Q 608.76 235.01 609.52 232.22
  Q 609.65 231.76 609.17 231.72
  Q 604.48 231.36 600.02 232.61
  C 598.91 232.92 598.03 233.90 596.52 233.62
  A 0.13 0.13 0.0 0 0 596.37 233.74
  Q 596.37 233.87 596.36 234.00
  Q 596.36 234.23 596.16 234.33
  C 588.26 238.33 583.36 245.37 579.20 253.16
  C 570.34 269.74 563.87 288.16 560.99 306.75
  Q 559.97 313.38 560.64 320.03
  Q 560.70 320.55 561.02 320.95
  Q 561.52 321.57 561.68 322.32
  Q 561.77 322.74 562.12 323.00
  C 564.44 324.70 565.53 323.69 567.65 323.37
  Q 568.09 323.31 568.45 323.06
  L 570.69 321.49"
/>
<path stroke="#ffa2b7" vector-effect="non-scaling-stroke" d="
  M 335.47 374.79
  C 335.85 373.79 337.62 372.30 338.01 371.76
  C 344.13 363.18 349.09 353.05 352.20 342.98
  Q 360.03 317.62 367.52 292.16
  Q 367.65 291.74 367.20 291.71
  Q 362.40 291.37 357.84 292.66
  C 356.98 292.90 356.23 293.61 355.20 293.71
  Q 354.83 293.75 354.54 294.00
  Q 354.21 294.28 353.60 294.59
  C 346.29 298.23 341.34 305.51 337.25 313.20
  Q 324.96 336.33 319.93 362.04
  C 318.76 368.02 317.97 373.05 318.69 380.12
  Q 318.74 380.61 319.06 381.00
  Q 319.53 381.59 319.68 382.35
  A 1.15 1.12 -78.9 0 0 320.15 383.07
  C 322.24 384.54 324.43 383.89 326.30 383.13
  Q 326.67 382.98 326.97 382.69
  C 327.97 381.72 329.38 381.33 330.30 380.46
  C 332.12 378.75 334.88 376.32 335.47 374.79"
/>
<path stroke="#ffa2b7" vector-effect="non-scaling-stroke" d="
  M 251.22 403.81
  L 254.04 407.04
  Q 254.37 407.43 254.88 407.42
  L 259.09 407.34
  Q 259.52 407.33 259.73 406.95
  Q 260.13 406.24 260.98 406.24
  A 1.30 1.28 24.3 0 0 261.82 405.93
  Q 268.90 399.81 273.51 390.76
  Q 281.03 376.01 284.77 361.25
  Q 288.93 344.85 290.13 327.99
  C 290.71 319.92 291.31 311.66 286.07 305.18
  A 1.31 1.29 -14.6 0 0 285.27 304.72
  C 281.45 304.10 277.68 305.30 275.06 308.26
  Q 270.51 313.39 267.09 319.33
  C 255.45 339.57 250.32 363.16 248.92 386.26
  Q 248.35 395.71 250.00 400.26
  Q 250.65 402.07 250.86 403.08
  Q 250.94 403.49 251.22 403.81"
/>
<path stroke="#ffa2b7" vector-effect="non-scaling-stroke" d="
  M 141.37 411.92
  Q 141.92 411.73 142.09 411.26
  C 148.81 392.80 152.86 371.25 152.36 352.49
  C 152.26 348.75 151.15 343.47 148.45 340.71
  C 144.80 336.98 138.58 341.53 136.03 344.50
  Q 130.35 351.11 126.76 358.46"
/>
</g>
<path fill="#ffffff" d="
  M 609.81 61.95
  Q 609.57 62.17 609.19 62.16
  Q 608.92 62.16 608.61 61.93
  Q 581.02 40.86 549.15 27.07
  Q 549.00 27.00 548.84 26.93
  Q 527.25 17.78 504.67 11.50
  C 504.19 11.37 503.62 11.39 502.99 11.22
  Q 477.70 4.53 450.74 2.74
  Q 448.80 2.61 441.25 2.00
  Q 433.99 1.41 415.58 1.64
  C 411.58 1.69 407.00 2.31 402.26 2.66
  C 359.09 5.81 314.97 19.03 276.85 40.62
  C 250.09 55.77 225.53 75.52 204.88 97.04
  C 203.49 98.49 202.01 100.39 200.46 101.98
  C 194.49 108.08 189.36 115.34 184.03 122.00
  C 175.95 132.11 166.41 146.96 159.55 159.68
  Q 139.50 196.84 130.09 238.16
  C 129.14 242.35 128.02 247.01 127.42 251.07
  C 126.00 260.71 124.64 269.50 123.54 281.47
  C 123.28 284.22 123.45 287.55 123.13 290.61
  C 122.17 299.75 122.58 309.19 122.76 318.37
  Q 122.76 318.37 122.75 318.38
  Q 122.60 318.38 122.45 318.39
  A 0.13 0.13 0.0 0 1 122.32 318.25
  Q 122.35 317.66 122.10 317.49
  C 118.87 234.68 148.49 155.82 205.15 95.27
  Q 215.89 83.79 223.38 77.63
  C 230.33 71.91 237.27 65.62 244.64 60.47
  Q 247.38 58.55 250.10 56.61
  Q 273.50 39.84 299.75 28.00
  C 401.30 -17.79 520.41 -5.28 609.81 61.95
  Z"
/>
<path fill="#ff446f" d="
  M 609.81 61.95
  Q 670.36 107.79 702.68 176.62
  Q 702.10 176.94 701.99 176.92
  Q 695.73 175.27 689.45 174.61
  A 1.36 1.35 -10.2 0 1 688.39 173.88
  C 654.07 106.50 595.43 54.24 523.83 29.38
  C 397.43 -14.51 255.00 31.87 181.35 144.60
  Q 131.15 221.43 133.41 314.85
  C 133.45 316.36 133.11 317.10 132.05 318.05
  Q 126.96 322.64 122.85 328.16
  L 122.10 317.49
  Q 122.35 317.66 122.32 318.25
  A 0.13 0.13 0.0 0 0 122.45 318.39
  Q 122.60 318.38 122.75 318.38
  Q 122.76 318.37 122.76 318.37
  C 122.58 309.19 122.17 299.75 123.13 290.61
  C 123.45 287.55 123.28 284.22 123.54 281.47
  C 124.64 269.50 126.00 260.71 127.42 251.07
  C 128.02 247.01 129.14 242.35 130.09 238.16
  Q 139.50 196.84 159.55 159.68
  C 166.41 146.96 175.95 132.11 184.03 122.00
  C 189.36 115.34 194.49 108.08 200.46 101.98
  C 202.01 100.39 203.49 98.49 204.88 97.04
  C 225.53 75.52 250.09 55.77 276.85 40.62
  C 314.97 19.03 359.09 5.81 402.26 2.66
  C 407.00 2.31 411.58 1.69 415.58 1.64
  Q 433.99 1.41 441.25 2.00
  Q 448.80 2.61 450.74 2.74
  Q 477.70 4.53 502.99 11.22
  C 503.62 11.39 504.19 11.37 504.67 11.50
  Q 527.25 17.78 548.84 26.93
  Q 549.00 27.00 549.15 27.07
  Q 581.02 40.86 608.61 61.93
  Q 608.92 62.16 609.19 62.16
  Q 609.57 62.17 609.81 61.95
  Z"
/>
<path fill="#ffffff" d="
  M 702.68 176.62
  Q 704.03 183.13 707.75 188.94
  C 698.97 189.49 688.90 203.38 682.93 209.94
  Q 678.72 214.57 669.57 227.53
  Q 669.45 227.71 669.37 227.97
  C 669.07 228.98 668.35 229.25 667.69 229.91
  Q 665.87 231.75 666.30 229.20
  C 666.64 227.26 667.60 224.91 667.74 222.91
  Q 667.78 222.36 668.07 221.88
  Q 668.86 220.61 668.66 219.12
  A 1.03 1.02 -28.3 0 1 668.90 218.34
  Q 669.78 217.34 669.70 216.00
  Q 669.67 215.45 669.95 214.98
  Q 670.73 213.63 670.72 212.07
  Q 670.72 211.57 670.93 211.12
  C 672.33 208.20 672.89 204.39 673.61 201.23
  Q 674.38 197.90 671.24 197.56
  Q 670.67 197.50 670.24 197.88
  Q 669.52 198.51 668.60 198.35
  A 0.79 0.78 12.9 0 0 667.70 198.91
  Q 667.53 199.55 667.05 199.32
  A 0.65 0.64 -49.9 0 0 666.40 199.38
  Q 664.79 200.55 660.23 204.28
  C 655.71 207.97 653.52 211.03 650.13 214.69
  C 649.04 215.87 648.35 217.23 647.29 218.50
  C 643.35 223.16 639.87 228.32 636.32 233.29
  Q 635.97 233.78 636.44 234.15
  Q 636.66 234.32 636.97 234.36
  Q 637.41 234.42 637.35 234.86
  Q 637.18 235.90 638.14 236.56
  Q 638.57 236.84 638.92 236.48
  Q 640.14 235.25 640.77 233.65
  Q 640.94 233.22 641.31 232.93
  Q 642.29 232.16 642.69 230.97
  Q 642.82 230.58 643.09 230.26
  L 652.97 218.37
  Q 653.34 217.92 653.88 217.70
  L 655.52 217.01
  A 1.09 1.09 0.0 0 1 657.03 218.07
  Q 656.89 220.94 656.30 223.83
  C 656.05 225.04 655.21 226.29 655.29 227.87
  A 1.39 1.35 63.2 0 1 655.01 228.76
  Q 654.25 229.75 654.29 230.99
  Q 654.31 231.48 654.06 231.91
  C 653.42 233.05 653.49 235.28 653.00 235.90
  A 0.49 0.46 76.5 0 0 652.91 236.06
  L 628.51 321.36
  Q 628.42 321.67 628.73 321.59
  L 641.12 318.47
  Q 641.65 318.34 641.66 317.80
  L 641.69 316.91
  A 1.40 1.38 62.1 0 1 641.90 316.21
  C 642.61 315.05 642.48 312.84 642.98 312.26
  Q 643.27 311.93 643.38 311.50
  Q 653.50 274.52 658.10 259.33
  Q 662.16 245.95 668.87 235.77
  Q 670.08 233.92 670.58 232.99
  Q 670.82 232.55 671.19 232.19
  Q 672.34 231.08 672.86 229.66
  Q 672.91 229.51 673.07 229.51
  Q 673.20 229.51 673.28 229.35
  C 673.81 228.28 675.04 227.07 675.81 226.11
  A 0.25 0.25 0.0 0 0 675.74 225.74
  Q 675.59 225.67 675.62 225.51
  Q 675.64 225.41 675.74 225.38
  Q 675.98 225.29 675.83 225.58
  A 0.09 0.09 0.0 0 0 675.97 225.68
  C 680.73 220.14 684.67 214.52 691.00 210.58
  Q 692.46 209.66 694.95 210.34
  Q 695.34 210.44 695.37 210.85
  Q 695.60 213.99 695.25 215.24
  Q 692.57 224.56 689.66 233.81
  Q 683.39 253.75 677.32 273.76
  Q 674.08 284.42 671.54 295.27
  C 670.37 300.28 669.01 308.12 671.61 312.80
  Q 671.84 313.22 672.28 313.41
  C 676.57 315.32 681.58 310.29 684.48 307.22
  Q 690.52 300.83 695.87 293.88
  Q 700.06 288.45 706.13 278.87
  A 0.43 0.41 52.8 0 0 706.17 278.50
  L 704.89 274.96
  A 0.19 0.18 53.4 0 0 704.57 274.91
  Q 697.77 283.61 691.14 292.18
  Q 689.72 294.01 688.08 295.69
  C 687.17 296.63 686.32 296.56 685.10 296.68
  Q 684.62 296.73 684.59 296.25
  C 683.93 287.96 688.08 276.59 690.92 267.56
  Q 698.99 241.87 707.19 216.21
  Q 709.23 209.83 711.46 199.76
  Q 717.80 217.32 722.53 236.37
  Q 716.17 253.24 712.63 272.02
  C 711.17 279.81 705.86 308.82 722.76 301.73
  Q 726.99 299.95 730.34 297.65
  Q 729.28 304.00 731.13 306.80
  L 720.31 314.39
  A 2.21 2.21 0.0 0 0 719.37 316.12
  C 715.65 410.04 668.62 496.16 590.72 548.69
  C 515.04 599.72 417.97 612.95 330.97 582.98
  C 263.27 559.65 206.20 512.56 171.06 450.01
  Q 170.61 449.21 170.18 448.74
  Q 169.44 447.92 168.94 447.81
  Q 162.08 446.23 155.26 443.97
  L 145.60 422.62
  Q 145.49 422.01 145.97 421.25
  Q 165.11 390.87 168.22 355.01
  Q 168.97 346.36 166.89 338.04
  Q 166.53 336.59 165.80 335.10
  C 163.95 331.32 161.27 327.17 156.30 327.23
  C 144.01 327.37 133.00 338.50 126.10 347.60
  Q 125.71 348.10 125.06 348.31
  L 122.85 328.16
  Q 126.96 322.64 132.05 318.05
  C 133.11 317.10 133.45 316.36 133.41 314.85
  Q 131.15 221.43 181.35 144.60
  C 255.00 31.87 397.43 -14.51 523.83 29.38
  C 595.43 54.24 654.07 106.50 688.39 173.88
  A 1.36 1.35 -10.2 0 0 689.45 174.61
  Q 695.73 175.27 701.99 176.92
  Q 702.10 176.94 702.68 176.62
  Z
  M 191.02 141.99
  C 178.44 159.53 167.28 181.14 159.35 202.06
  Q 139.34 254.79 140.48 311.05
  A 0.09 0.09 0.0 0 0 140.62 311.13
  L 147.72 306.81
  A 0.49 0.47 74.4 0 0 147.94 306.40
  Q 148.10 214.85 200.00 141.72
  C 264.30 51.13 378.62 8.70 486.62 32.62
  C 555.67 47.91 617.05 89.62 656.64 148.35
  Q 663.37 158.35 672.22 174.43
  Q 672.33 174.63 672.56 174.61
  L 681.64 174.05
  Q 681.80 174.04 681.72 173.89
  Q 657.89 127.62 619.28 92.73
  C 614.34 88.27 609.61 83.80 604.29 79.79
  C 598.37 75.34 592.26 70.64 586.38 66.73
  C 481.73 -2.96 342.88 3.14 244.94 83.20
  C 228.98 96.25 213.16 112.28 200.26 129.42
  Q 195.57 135.65 191.02 141.99
  Z
  M 453.42 231.97
  C 454.38 230.98 454.74 229.59 455.63 228.64
  C 457.71 226.42 459.50 223.71 461.45 221.76
  Q 472.03 211.25 486.00 205.69
  Q 487.48 205.10 489.18 205.02
  Q 489.76 204.98 489.61 205.54
  Q 488.31 210.34 486.89 215.09
  Q 472.06 264.83 456.85 314.46
  C 452.93 327.25 449.35 340.68 443.87 352.89
  C 441.41 358.35 438.04 362.40 433.12 365.89
  Q 429.31 368.61 427.98 369.19
  Q 425.99 370.06 426.29 371.84
  A 1.04 1.02 48.9 0 1 426.26 372.35
  L 425.26 375.45
  Q 425.08 376.03 425.69 375.99
  Q 426.92 375.91 427.50 375.02
  Q 427.68 374.73 428.02 374.76
  Q 428.61 374.80 429.39 374.37
  Q 436.77 370.29 446.03 367.11
  Q 450.15 365.70 454.66 365.15
  C 459.05 364.62 464.30 364.47 468.88 363.11
  Q 469.47 362.93 469.66 362.35
  L 471.56 356.60
  Q 471.77 355.95 471.12 356.14
  L 467.57 357.15
  Q 467.13 357.28 466.67 357.29
  L 462.94 357.32
  Q 462.45 357.33 462.02 357.07
  Q 460.51 356.13 458.75 356.41
  Q 458.24 356.49 458.23 355.97
  Q 458.17 353.04 458.98 350.24
  Q 469.13 315.18 479.61 280.22
  C 480.24 278.12 481.83 274.88 481.73 272.74
  Q 481.71 272.29 482.12 272.10
  Q 483.01 271.66 483.42 272.59
  C 488.05 283.08 490.39 296.50 491.28 307.00
  Q 492.72 324.14 494.53 341.24
  Q 495.91 354.42 499.41 367.17
  C 503.96 383.79 515.10 395.82 533.40 386.16
  Q 535.17 385.23 536.28 384.05
  Q 536.49 383.83 536.78 383.76
  Q 536.93 383.73 537.07 383.70
  Q 537.34 383.63 537.58 383.42
  C 544.69 377.32 551.61 367.72 552.41 358.10
  C 552.53 356.62 551.84 355.32 551.36 353.94
  A 0.88 0.87 -6.5 0 0 550.60 353.34
  C 549.05 353.20 547.88 352.95 546.60 354.04
  Q 544.09 356.18 542.86 359.29
  Q 541.01 364.00 539.25 368.75
  Q 537.18 374.32 532.84 378.42
  Q 530.58 380.55 527.54 380.93
  Q 523.74 381.41 521.76 380.25
  Q 517.36 377.67 514.07 371.70
  C 513.72 371.05 513.70 370.23 513.09 369.65
  Q 512.75 369.33 512.75 368.86
  C 512.73 367.67 512.04 366.93 511.78 365.99
  C 508.79 355.27 507.24 344.09 506.54 333.32
  Q 504.87 307.44 502.57 286.25
  Q 501.46 275.96 497.50 265.52
  Q 497.33 265.06 496.95 264.75
  Q 496.50 264.38 496.55 263.83
  Q 496.59 263.40 497.13 262.87
  C 499.01 261.01 500.44 258.83 502.27 257.03
  C 504.95 254.40 507.00 251.39 509.59 248.69
  C 511.78 246.42 514.25 243.03 515.58 241.42
  C 526.64 228.03 537.03 214.05 547.54 200.22
  C 548.96 198.35 550.79 196.53 552.33 194.60
  Q 554.61 191.74 555.99 190.44
  Q 561.78 184.96 568.62 180.79
  A 2.18 2.16 80.6 0 0 569.60 179.41
  L 569.88 178.10
  Q 570.07 177.23 569.24 177.57
  Q 552.73 184.35 537.35 185.77
  C 536.68 185.83 536.10 186.09 535.46 186.25
  Q 534.91 186.39 534.36 186.30
  Q 534.03 186.25 533.70 186.30
  A 0.63 0.63 0.0 0 0 533.23 187.19
  Q 533.75 188.32 532.86 189.11
  A 1.22 1.20 70.4 0 0 532.45 190.00
  Q 532.40 191.74 531.52 193.19
  Q 531.18 193.75 531.84 193.75
  C 535.47 193.75 538.37 192.23 542.19 192.80
  A 1.66 1.65 -70.8 0 1 543.38 195.27
  Q 541.77 198.04 539.89 200.66
  Q 526.22 219.78 511.39 238.00
  Q 510.73 238.81 509.13 240.54
  C 507.18 242.65 505.51 245.14 503.70 247.04
  C 501.05 249.83 498.47 253.13 496.04 255.65
  C 493.83 257.94 490.27 262.30 487.59 263.74
  Q 486.75 264.19 486.49 264.88
  Q 486.34 265.27 485.93 265.33
  Q 485.35 265.41 484.85 265.74
  Q 483.78 266.45 484.15 265.22
  L 499.77 213.33
  A 1.13 1.08 74.8 0 1 500.01 212.89
  Q 500.80 212.05 500.68 210.89
  A 1.19 1.19 0.0 0 1 500.99 209.97
  Q 501.77 209.14 501.71 208.02
  Q 501.69 207.52 502.01 207.15
  Q 502.77 206.27 502.75 205.16
  Q 502.75 204.68 503.06 204.31
  C 503.78 203.43 503.70 202.32 504.05 201.51
  Q 504.68 200.04 505.27 198.53
  C 505.70 197.46 505.59 196.37 506.53 195.30
  A 0.91 0.89 -32.2 0 0 506.73 194.46
  Q 506.46 193.46 507.25 192.97
  A 0.43 0.43 0.0 0 0 506.98 192.18
  Q 505.38 192.34 503.98 193.06
  Q 503.53 193.29 503.02 193.29
  Q 501.36 193.28 499.93 194.08
  Q 499.47 194.34 498.94 194.31
  C 497.68 194.24 496.62 195.06 495.63 195.30
  Q 493.69 195.75 490.61 196.87
  C 478.93 201.12 468.33 206.66 460.16 215.15
  Q 445.32 230.56 439.72 252.07
  C 438.46 256.91 436.06 267.05 441.11 271.44
  Q 441.49 271.77 442.00 271.79
  C 447.41 272.00 450.34 264.15 450.69 260.02
  Q 450.87 257.94 449.64 253.58
  C 447.87 247.31 448.62 243.31 450.83 236.97
  Q 450.98 236.56 451.26 236.22
  Q 451.68 235.72 451.80 235.08
  Q 451.88 234.66 452.14 234.32
  Q 452.68 233.63 452.93 232.81
  Q 453.07 232.33 453.42 231.97
  Z
  M 618.24 303.11
  Q 621.12 300.93 618.99 297.81
  Q 618.53 297.14 618.57 296.98
  Q 618.99 295.04 617.89 296.65
  Q 610.84 306.99 601.50 315.30
  A 1.70 1.70 0.0 0 1 598.67 313.95
  Q 598.86 310.05 600.00 305.48
  Q 609.86 265.82 622.50 226.95
  Q 622.60 226.64 622.66 226.33
  Q 622.76 225.83 623.05 225.41
  Q 623.79 224.37 623.75 223.12
  Q 623.73 222.61 624.04 222.21
  Q 624.78 221.27 624.74 220.11
  Q 624.72 219.60 625.03 219.19
  Q 625.77 218.18 625.72 216.96
  Q 625.70 216.44 626.02 216.02
  C 626.73 215.11 626.67 214.13 626.93 213.32
  Q 628.25 209.26 629.60 205.21
  A 0.26 0.26 0.0 0 0 629.23 204.90
  L 626.17 206.46
  A 1.02 1.01 -4.7 0 0 625.67 207.04
  Q 625.46 207.65 625.09 207.47
  Q 624.58 207.22 624.11 207.54
  Q 623.57 207.90 623.47 208.49
  Q 623.41 208.82 623.26 209.13
  L 621.17 213.34
  Q 620.95 213.77 620.47 213.83
  Q 614.04 214.59 607.97 216.98
  Q 607.26 217.26 606.57 217.59
  C 594.54 223.26 586.59 232.65 578.21 244.95
  Q 557.01 276.08 547.83 312.63
  Q 546.08 319.60 545.39 326.75
  C 544.90 331.85 545.07 347.08 554.01 344.49
  Q 557.84 343.38 562.04 339.79
  Q 568.06 334.65 573.09 328.55
  Q 578.72 321.72 583.60 314.32
  C 584.79 312.53 586.77 310.77 587.85 308.44
  Q 587.93 308.27 588.11 308.34
  L 588.12 308.34
  Q 588.30 308.41 588.24 308.59
  C 587.11 311.85 586.49 315.39 585.50 318.43
  Q 583.84 323.57 581.81 330.76
  Q 580.96 333.80 582.28 336.28
  A 0.84 0.82 75.4 0 0 583.03 336.73
  C 584.42 336.72 585.47 336.90 586.77 336.32
  C 595.09 332.61 602.63 324.19 608.20 316.86
  Q 612.99 310.56 617.63 304.15
  Q 617.77 303.95 617.83 303.73
  A 1.16 1.15 78.6 0 1 618.24 303.11
  Z
  M 376.16 363.17
  Q 379.17 361.01 377.13 357.90
  Q 376.64 357.15 376.69 356.52
  Q 376.71 356.20 376.39 356.20
  Q 376.21 356.20 376.10 356.36
  Q 369.04 366.77 359.52 375.31
  A 1.70 1.70 0.0 0 1 356.68 373.96
  Q 356.88 369.92 358.05 365.22
  Q 366.54 331.17 377.17 297.74
  Q 382.34 281.48 387.57 265.22
  A 0.23 0.23 0.0 0 0 387.27 264.93
  Q 385.22 265.68 383.55 267.05
  Q 383.19 267.35 382.73 267.34
  Q 382.43 267.33 382.16 267.48
  Q 381.86 267.66 381.62 268.26
  Q 380.84 270.32 379.62 272.23
  Q 379.36 272.64 379.44 273.13
  Q 379.53 273.72 379.01 273.77
  Q 372.06 274.52 365.54 277.16
  Q 364.84 277.45 364.15 277.78
  C 353.40 282.93 345.34 292.06 338.96 300.96
  Q 322.69 323.68 312.67 349.76
  Q 307.29 363.77 304.42 378.50
  C 303.07 385.40 302.85 391.73 304.33 398.60
  C 305.62 404.61 309.38 406.01 314.76 403.34
  C 320.00 400.74 325.48 395.53 329.39 390.24
  C 330.93 388.17 333.03 386.11 334.33 384.37
  Q 336.96 380.86 339.62 377.38
  Q 339.83 377.09 339.78 376.87
  Q 339.70 376.58 339.93 376.38
  Q 341.55 374.93 342.52 373.01
  Q 342.72 372.60 343.09 372.32
  Q 345.07 370.85 345.56 368.26
  Q 345.58 368.14 345.70 368.18
  L 345.94 368.26
  Q 346.29 368.37 346.17 368.71
  C 345.10 371.91 344.51 375.36 343.53 378.38
  Q 341.83 383.57 339.81 390.76
  Q 338.98 393.75 340.23 396.19
  Q 340.46 396.63 340.96 396.68
  Q 343.44 396.88 344.14 396.64
  Q 347.25 395.56 352.02 391.94
  C 356.21 388.76 361.76 382.66 365.58 377.66
  Q 370.75 370.90 375.69 363.97
  Q 375.80 363.82 375.84 363.64
  Q 375.92 363.35 376.16 363.17
  Z
  M 294.01 367.12
  Q 294.07 367.11 294.13 367.08
  Q 294.22 367.03 294.28 366.89
  Q 304.38 344.12 306.31 319.26
  C 306.94 311.09 306.06 299.42 299.12 293.87
  C 293.42 289.31 283.04 294.77 278.11 298.33
  C 266.72 306.56 258.40 319.42 251.90 331.94
  Q 241.73 351.54 236.54 373.03
  Q 233.28 386.55 232.79 395.50
  Q 232.47 401.54 233.58 407.48
  C 237.24 427.05 254.64 420.03 264.12 411.37
  C 276.73 399.85 286.73 383.45 293.69 368.50
  Q 293.92 368.02 293.88 367.26
  Q 293.88 367.15 294.01 367.12
  Z
  M 220.38 311.45
  Q 219.43 311.00 218.88 311.70
  Q 218.64 312.01 218.28 312.17
  Q 217.54 312.49 216.37 313.38
  C 204.57 322.34 196.18 335.99 189.51 348.95
  C 182.39 362.81 176.32 378.34 172.18 393.73
  C 169.85 402.39 163.64 431.47 173.52 436.70
  C 182.15 441.26 199.71 424.12 205.26 418.51
  Q 210.16 413.55 219.44 402.24
  Q 219.78 401.83 219.72 401.31
  L 219.15 395.76
  A 0.47 0.47 0.0 0 0 218.30 395.53
  C 213.49 402.06 196.02 424.22 186.20 419.16
  Q 185.78 418.94 185.76 418.47
  Q 185.74 417.61 185.14 416.98
  A 1.52 1.47 -71.3 0 1 184.73 416.11
  C 184.54 414.62 183.83 413.27 183.71 411.87
  Q 183.10 404.10 183.90 398.12
  Q 187.58 370.65 199.25 343.77
  C 202.23 336.89 205.60 331.12 211.17 326.20
  Q 211.51 325.91 211.95 325.83
  Q 212.69 325.69 213.12 325.14
  A 1.22 1.21 14.5 0 1 213.91 324.68
  Q 216.46 324.28 219.01 324.72
  Q 219.58 324.82 219.93 325.28
  Q 220.25 325.70 220.76 325.69
  Q 221.25 325.68 221.63 326.00
  L 223.68 327.76
  A 0.37 0.36 41.9 0 0 224.17 327.74
  Q 224.46 327.45 224.60 327.92
  Q 224.72 328.37 225.13 328.59
  Q 230.69 331.54 234.72 326.98
  Q 239.36 321.73 238.51 314.26
  Q 237.74 307.58 231.26 307.72
  Q 227.53 307.80 222.82 309.72
  Q 222.68 309.78 222.66 309.93
  Q 222.63 310.13 222.58 310.31
  A 0.19 0.19 0.0 0 1 222.31 310.42
  Q 221.32 309.97 220.67 310.73
  Q 220.58 310.84 220.60 310.99
  L 220.63 311.26
  Q 220.68 311.58 220.38 311.45
  Z
  M 179.50 449.75
  C 253.41 574.79 406.23 624.32 539.98 568.16
  C 581.23 550.84 621.00 520.86 648.56 486.56
  C 652.52 481.63 659.68 472.60 664.58 464.83
  Q 666.79 461.33 669.00 457.82
  Q 709.02 394.10 712.91 318.56
  A 0.12 0.12 0.0 0 0 712.75 318.44
  L 703.64 321.87
  A 0.43 0.43 0.0 0 0 703.37 322.24
  Q 698.68 390.98 662.84 449.44
  Q 660.76 452.83 658.70 456.23
  Q 656.39 460.05 654.38 462.91
  C 633.48 492.62 606.86 518.71 576.12 538.14
  C 520.11 573.55 454.59 588.39 388.82 579.51
  Q 331.57 571.78 281.93 541.73
  C 276.74 538.59 271.40 535.49 266.60 532.09
  Q 225.88 503.30 197.22 462.45
  C 194.59 458.70 191.89 453.96 189.09 449.81
  Q 188.55 449.02 187.60 449.02
  L 179.93 449.01
  Q 179.06 449.01 179.50 449.75
  Z"
/>
<path fill="#ff446f" d="
  M 159.35 202.06
  C 167.28 181.14 178.44 159.53 191.02 141.99
  Q 195.57 135.65 200.26 129.42
  C 213.16 112.28 228.98 96.25 244.94 83.20
  C 342.88 3.14 481.73 -2.96 586.38 66.73
  C 592.26 70.64 598.37 75.34 604.29 79.79
  C 609.61 83.80 614.34 88.27 619.28 92.73
  Q 657.89 127.62 681.72 173.89
  Q 681.80 174.04 681.64 174.05
  L 672.56 174.61
  Q 672.33 174.63 672.22 174.43
  Q 663.37 158.35 656.64 148.35
  C 617.05 89.62 555.67 47.91 486.62 32.62
  C 378.62 8.70 264.30 51.13 200.00 141.72
  Q 148.10 214.85 147.94 306.40
  A 0.49 0.47 74.4 0 1 147.72 306.81
  L 140.62 311.13
  A 0.09 0.09 0.0 0 1 140.48 311.05
  Q 139.34 254.79 159.35 202.06
  Z"
/>
<path fill="#ff446f" d="
  M 790.20 270.53
  Q 792.86 270.56 794.70 268.69
  Q 805.69 257.48 815.05 243.89
  Q 815.44 243.33 815.82 243.89
  L 817.35 246.11
  Q 817.71 246.63 817.39 247.17
  Q 805.77 266.68 789.07 282.31
  Q 786.39 284.82 783.26 286.69
  C 775.71 291.19 774.97 282.22 775.79 277.65
  Q 778.34 263.55 782.25 249.75
  Q 795.10 204.45 808.28 159.25
  C 817.32 128.25 828.10 88.89 860.56 74.62
  C 871.70 69.72 873.53 78.51 869.55 86.30
  C 862.24 100.62 845.05 87.05 838.15 100.96
  C 832.95 111.44 829.82 124.11 826.57 135.51
  Q 808.62 198.47 790.97 261.51
  Q 789.57 266.51 789.54 269.85
  Q 789.53 270.52 790.20 270.53
  Z"
/>
<path fill="#ff446f" d="
  M 727.69 265.66
  Q 725.74 272.81 726.76 279.00
  Q 727.24 281.93 729.28 282.22
  C 734.57 283.97 741.51 277.64 744.89 274.13
  Q 753.57 265.15 761.32 255.44
  Q 761.45 255.28 761.52 255.47
  L 763.37 260.07
  Q 763.45 260.28 763.33 260.46
  Q 754.88 272.91 745.09 284.08
  Q 738.21 291.93 730.34 297.65
  Q 726.99 299.95 722.76 301.73
  C 705.86 308.82 711.17 279.81 712.63 272.02
  Q 716.17 253.24 722.53 236.37
  Q 727.77 222.71 738.20 203.21
  Q 745.97 188.68 757.43 179.15
  C 761.01 176.18 768.83 172.25 773.56 173.52
  C 779.61 175.14 779.58 183.93 778.66 188.99
  C 774.17 213.71 754.32 231.48 735.89 246.64
  C 733.48 248.62 730.51 250.89 729.55 254.24
  Q 727.91 259.94 727.69 265.66
  Z
  M 765.30 195.84
  C 765.58 192.74 764.56 186.72 760.58 186.59
  C 747.85 186.14 735.71 229.20 733.47 238.48
  Q 732.39 242.94 735.88 239.96
  C 747.94 229.66 763.78 212.56 765.30 195.84
  Z"
/>
<path fill="#ff446f" d="
  M 452.93 232.81
  Q 452.68 233.63 452.14 234.32
  Q 451.88 234.66 451.80 235.08
  Q 451.68 235.72 451.26 236.22
  Q 450.98 236.56 450.83 236.97
  C 448.62 243.31 447.87 247.31 449.64 253.58
  Q 450.87 257.94 450.69 260.02
  C 450.34 264.15 447.41 272.00 442.00 271.79
  Q 441.49 271.77 441.11 271.44
  C 436.06 267.05 438.46 256.91 439.72 252.07
  Q 445.32 230.56 460.16 215.15
  C 468.33 206.66 478.93 201.12 490.61 196.87
  Q 493.69 195.75 495.63 195.30
  C 496.62 195.06 497.68 194.24 498.94 194.31
  Q 499.47 194.34 499.93 194.08
  Q 501.36 193.28 503.02 193.29
  Q 503.53 193.29 503.98 193.06
  Q 505.38 192.34 506.98 192.18
  A 0.43 0.43 0.0 0 1 507.25 192.97
  Q 506.46 193.46 506.73 194.46
  A 0.91 0.89 -32.2 0 1 506.53 195.30
  C 505.59 196.37 505.70 197.46 505.27 198.53
  Q 504.68 200.04 504.05 201.51
  C 503.70 202.32 503.78 203.43 503.06 204.31
  Q 502.75 204.68 502.75 205.16
  Q 502.77 206.27 502.01 207.15
  Q 501.69 207.52 501.71 208.02
  Q 501.77 209.14 500.99 209.97
  A 1.19 1.19 0.0 0 0 500.68 210.89
  Q 500.80 212.05 500.01 212.89
  A 1.13 1.08 74.8 0 0 499.77 213.33
  L 484.15 265.22
  Q 483.78 266.45 484.85 265.74
  Q 485.35 265.41 485.93 265.33
  Q 486.34 265.27 486.49 264.88
  Q 486.75 264.19 487.59 263.74
  C 490.27 262.30 493.83 257.94 496.04 255.65
  C 498.47 253.13 501.05 249.83 503.70 247.04
  C 505.51 245.14 507.18 242.65 509.13 240.54
  Q 510.73 238.81 511.39 238.00
  Q 526.22 219.78 539.89 200.66
  Q 541.77 198.04 543.38 195.27
  A 1.66 1.65 -70.8 0 0 542.19 192.80
  C 538.37 192.23 535.47 193.75 531.84 193.75
  Q 531.18 193.75 531.52 193.19
  Q 532.40 191.74 532.45 190.00
  A 1.22 1.20 70.4 0 1 532.86 189.11
  Q 533.75 188.32 533.23 187.19
  A 0.63 0.63 0.0 0 1 533.70 186.30
  Q 534.03 186.25 534.36 186.30
  Q 534.91 186.39 535.46 186.25
  C 536.10 186.09 536.68 185.83 537.35 185.77
  Q 552.73 184.35 569.24 177.57
  Q 570.07 177.23 569.88 178.10
  L 569.60 179.41
  A 2.18 2.16 80.6 0 1 568.62 180.79
  Q 561.78 184.96 555.99 190.44
  Q 554.61 191.74 552.33 194.60
  C 550.79 196.53 548.96 198.35 547.54 200.22
  C 537.03 214.05 526.64 228.03 515.58 241.42
  C 514.25 243.03 511.78 246.42 509.59 248.69
  C 507.00 251.39 504.95 254.40 502.27 257.03
  C 500.44 258.83 499.01 261.01 497.13 262.87
  Q 496.59 263.40 496.55 263.83
  Q 496.50 264.38 496.95 264.75
  Q 497.33 265.06 497.50 265.52
  Q 501.46 275.96 502.57 286.25
  Q 504.87 307.44 506.54 333.32
  C 507.24 344.09 508.79 355.27 511.78 365.99
  C 512.04 366.93 512.73 367.67 512.75 368.86
  Q 512.75 369.33 513.09 369.65
  C 513.70 370.23 513.72 371.05 514.07 371.70
  Q 517.36 377.67 521.76 380.25
  Q 523.74 381.41 527.54 380.93
  Q 530.58 380.55 532.84 378.42
  Q 537.18 374.32 539.25 368.75
  Q 541.01 364.00 542.86 359.29
  Q 544.09 356.18 546.60 354.04
  C 547.88 352.95 549.05 353.20 550.60 353.34
  A 0.88 0.87 -6.5 0 1 551.36 353.94
  C 551.84 355.32 552.53 356.62 552.41 358.10
  C 551.61 367.72 544.69 377.32 537.58 383.42
  Q 537.34 383.63 537.07 383.70
  Q 536.93 383.73 536.78 383.76
  Q 536.49 383.83 536.28 384.05
  Q 535.17 385.23 533.40 386.16
  C 515.10 395.82 503.96 383.79 499.41 367.17
  Q 495.91 354.42 494.53 341.24
  Q 492.72 324.14 491.28 307.00
  C 490.39 296.50 488.05 283.08 483.42 272.59
  Q 483.01 271.66 482.12 272.10
  Q 481.71 272.29 481.73 272.74
  C 481.83 274.88 480.24 278.12 479.61 280.22
  Q 469.13 315.18 458.98 350.24
  Q 458.17 353.04 458.23 355.97
  Q 458.24 356.49 458.75 356.41
  Q 460.51 356.13 462.02 357.07
  Q 462.45 357.33 462.94 357.32
  L 466.67 357.29
  Q 467.13 357.28 467.57 357.15
  L 471.12 356.14
  Q 471.77 355.95 471.56 356.60
  L 469.66 362.35
  Q 469.47 362.93 468.88 363.11
  C 464.30 364.47 459.05 364.62 454.66 365.15
  Q 450.15 365.70 446.03 367.11
  Q 436.77 370.29 429.39 374.37
  Q 428.61 374.80 428.02 374.76
  Q 427.68 374.73 427.50 375.02
  Q 426.92 375.91 425.69 375.99
  Q 425.08 376.03 425.26 375.45
  L 426.26 372.35
  A 1.04 1.02 48.9 0 0 426.29 371.84
  Q 425.99 370.06 427.98 369.19
  Q 429.31 368.61 433.12 365.89
  C 438.04 362.40 441.41 358.35 443.87 352.89
  C 449.35 340.68 452.93 327.25 456.85 314.46
  Q 472.06 264.83 486.89 215.09
  Q 488.31 210.34 489.61 205.54
  Q 489.76 204.98 489.18 205.02
  Q 487.48 205.10 486.00 205.69
  Q 472.03 211.25 461.45 221.76
  C 459.50 223.71 457.71 226.42 455.63 228.64
  C 454.74 229.59 454.38 230.98 453.42 231.97
  Q 453.07 232.33 452.93 232.81
  Z"
/>
<path fill="#ff446f" d="
  M 707.75 188.94
  Q 710.97 190.39 711.38 194.36
  Q 711.68 197.32 711.46 199.76
  Q 709.23 209.83 707.19 216.21
  Q 698.99 241.87 690.92 267.56
  C 688.08 276.59 683.93 287.96 684.59 296.25
  Q 684.62 296.73 685.10 296.68
  C 686.32 296.56 687.17 296.63 688.08 295.69
  Q 689.72 294.01 691.14 292.18
  Q 697.77 283.61 704.57 274.91
  A 0.19 0.18 53.4 0 1 704.89 274.96
  L 706.17 278.50
  A 0.43 0.41 52.8 0 1 706.13 278.87
  Q 700.06 288.45 695.87 293.88
  Q 690.52 300.83 684.48 307.22
  C 681.58 310.29 676.57 315.32 672.28 313.41
  Q 671.84 313.22 671.61 312.80
  C 669.01 308.12 670.37 300.28 671.54 295.27
  Q 674.08 284.42 677.32 273.76
  Q 683.39 253.75 689.66 233.81
  Q 692.57 224.56 695.25 215.24
  Q 695.60 213.99 695.37 210.85
  Q 695.34 210.44 694.95 210.34
  Q 692.46 209.66 691.00 210.58
  C 684.67 214.52 680.73 220.14 675.97 225.68
  A 0.09 0.09 0.0 0 1 675.83 225.58
  Q 675.98 225.29 675.74 225.38
  Q 675.64 225.41 675.62 225.51
  Q 675.59 225.67 675.74 225.74
  A 0.25 0.25 0.0 0 1 675.81 226.11
  C 675.04 227.07 673.81 228.28 673.28 229.35
  Q 673.20 229.51 673.07 229.51
  Q 672.91 229.51 672.86 229.66
  Q 672.34 231.08 671.19 232.19
  Q 670.82 232.55 670.58 232.99
  Q 670.08 233.92 668.87 235.77
  Q 662.16 245.95 658.10 259.33
  Q 653.50 274.52 643.38 311.50
  Q 643.27 311.93 642.98 312.26
  C 642.48 312.84 642.61 315.05 641.90 316.21
  A 1.40 1.38 62.1 0 0 641.69 316.91
  L 641.66 317.80
  Q 641.65 318.34 641.12 318.47
  L 628.73 321.59
  Q 628.42 321.67 628.51 321.36
  L 652.91 236.06
  A 0.49 0.46 76.5 0 1 653.00 235.90
  C 653.49 235.28 653.42 233.05 654.06 231.91
  Q 654.31 231.48 654.29 230.99
  Q 654.25 229.75 655.01 228.76
  A 1.39 1.35 63.2 0 0 655.29 227.87
  C 655.21 226.29 656.05 225.04 656.30 223.83
  Q 656.89 220.94 657.03 218.07
  A 1.09 1.09 0.0 0 0 655.52 217.01
  L 653.88 217.70
  Q 653.34 217.92 652.97 218.37
  L 643.09 230.26
  Q 642.82 230.58 642.69 230.97
  Q 642.29 232.16 641.31 232.93
  Q 640.94 233.22 640.77 233.65
  Q 640.14 235.25 638.92 236.48
  Q 638.57 236.84 638.14 236.56
  Q 637.18 235.90 637.35 234.86
  Q 637.41 234.42 636.97 234.36
  Q 636.66 234.32 636.44 234.15
  Q 635.97 233.78 636.32 233.29
  C 639.87 228.32 643.35 223.16 647.29 218.50
  C 648.35 217.23 649.04 215.87 650.13 214.69
  C 653.52 211.03 655.71 207.97 660.23 204.28
  Q 664.79 200.55 666.40 199.38
  A 0.65 0.64 -49.9 0 1 667.05 199.32
  Q 667.53 199.55 667.70 198.91
  A 0.79 0.78 12.9 0 1 668.60 198.35
  Q 669.52 198.51 670.24 197.88
  Q 670.67 197.50 671.24 197.56
  Q 674.38 197.90 673.61 201.23
  C 672.89 204.39 672.33 208.20 670.93 211.12
  Q 670.72 211.57 670.72 212.07
  Q 670.73 213.63 669.95 214.98
  Q 669.67 215.45 669.70 216.00
  Q 669.78 217.34 668.90 218.34
  A 1.03 1.02 -28.3 0 0 668.66 219.12
  Q 668.86 220.61 668.07 221.88
  Q 667.78 222.36 667.74 222.91
  C 667.60 224.91 666.64 227.26 666.30 229.20
  Q 665.87 231.75 667.69 229.91
  C 668.35 229.25 669.07 228.98 669.37 227.97
  Q 669.45 227.71 669.57 227.53
  Q 678.72 214.57 682.93 209.94
  C 688.90 203.38 698.97 189.49 707.75 188.94
  Z"
/>
<path fill="#ff446f" d="
  M 617.83 303.73
  Q 617.77 303.95 617.63 304.15
  Q 612.99 310.56 608.20 316.86
  C 602.63 324.19 595.09 332.61 586.77 336.32
  C 585.47 336.90 584.42 336.72 583.03 336.73
  A 0.84 0.82 75.4 0 1 582.28 336.28
  Q 580.96 333.80 581.81 330.76
  Q 583.84 323.57 585.50 318.43
  C 586.49 315.39 587.11 311.85 588.24 308.59
  Q 588.30 308.41 588.12 308.34
  L 588.11 308.34
  Q 587.93 308.27 587.85 308.44
  C 586.77 310.77 584.79 312.53 583.60 314.32
  Q 578.72 321.72 573.09 328.55
  Q 568.06 334.65 562.04 339.79
  Q 557.84 343.38 554.01 344.49
  C 545.07 347.08 544.90 331.85 545.39 326.75
  Q 546.08 319.60 547.83 312.63
  Q 557.01 276.08 578.21 244.95
  C 586.59 232.65 594.54 223.26 606.57 217.59
  Q 607.26 217.26 607.97 216.98
  Q 614.04 214.59 620.47 213.83
  Q 620.95 213.77 621.17 213.34
  L 623.26 209.13
  Q 623.41 208.82 623.47 208.49
  Q 623.57 207.90 624.11 207.54
  Q 624.58 207.22 625.09 207.47
  Q 625.46 207.65 625.67 207.04
  A 1.02 1.01 -4.7 0 1 626.17 206.46
  L 629.23 204.90
  A 0.26 0.26 0.0 0 1 629.60 205.21
  Q 628.25 209.26 626.93 213.32
  C 626.67 214.13 626.73 215.11 626.02 216.02
  Q 625.70 216.44 625.72 216.96
  Q 625.77 218.18 625.03 219.19
  Q 624.72 219.60 624.74 220.11
  Q 624.78 221.27 624.04 222.21
  Q 623.73 222.61 623.75 223.12
  Q 623.79 224.37 623.05 225.41
  Q 622.76 225.83 622.66 226.33
  Q 622.60 226.64 622.50 226.95
  Q 609.86 265.82 600.00 305.48
  Q 598.86 310.05 598.67 313.95
  A 1.70 1.70 0.0 0 0 601.50 315.30
  Q 610.84 306.99 617.89 296.65
  Q 618.99 295.04 618.57 296.98
  Q 618.53 297.14 618.99 297.81
  Q 621.12 300.93 618.24 303.11
  A 1.16 1.15 78.6 0 0 617.83 303.73
  Z
  M 570.69 321.49
  Q 571.76 320.75 572.73 319.88
  C 584.67 309.15 591.50 292.23 596.36 276.08
  Q 602.11 256.97 607.89 237.87
  Q 608.76 235.01 609.52 232.22
  Q 609.65 231.76 609.17 231.72
  Q 604.48 231.36 600.02 232.61
  C 598.91 232.92 598.03 233.90 596.52 233.62
  A 0.13 0.13 0.0 0 0 596.37 233.74
  Q 596.37 233.87 596.36 234.00
  Q 596.36 234.23 596.16 234.33
  C 588.26 238.33 583.36 245.37 579.20 253.16
  C 570.34 269.74 563.87 288.16 560.99 306.75
  Q 559.97 313.38 560.64 320.03
  Q 560.70 320.55 561.02 320.95
  Q 561.52 321.57 561.68 322.32
  Q 561.77 322.74 562.12 323.00
  C 564.44 324.70 565.53 323.69 567.65 323.37
  Q 568.09 323.31 568.45 323.06
  L 570.69 321.49
  Z"
/>
<path fill="#ffffff" d="
  M 570.69 321.49
  L 568.45 323.06
  Q 568.09 323.31 567.65 323.37
  C 565.53 323.69 564.44 324.70 562.12 323.00
  Q 561.77 322.74 561.68 322.32
  Q 561.52 321.57 561.02 320.95
  Q 560.70 320.55 560.64 320.03
  Q 559.97 313.38 560.99 306.75
  C 563.87 288.16 570.34 269.74 579.20 253.16
  C 583.36 245.37 588.26 238.33 596.16 234.33
  Q 596.36 234.23 596.36 234.00
  Q 596.37 233.87 596.37 233.74
  A 0.13 0.13 0.0 0 1 596.52 233.62
  C 598.03 233.90 598.91 232.92 600.02 232.61
  Q 604.48 231.36 609.17 231.72
  Q 609.65 231.76 609.52 232.22
  Q 608.76 235.01 607.89 237.87
  Q 602.11 256.97 596.36 276.08
  C 591.50 292.23 584.67 309.15 572.73 319.88
  Q 571.76 320.75 570.69 321.49
  Z"
/>
<path fill="#ff446f" d="
  M 375.84 363.64
  Q 375.80 363.82 375.69 363.97
  Q 370.75 370.90 365.58 377.66
  C 361.76 382.66 356.21 388.76 352.02 391.94
  Q 347.25 395.56 344.14 396.64
  Q 343.44 396.88 340.96 396.68
  Q 340.46 396.63 340.23 396.19
  Q 338.98 393.75 339.81 390.76
  Q 341.83 383.57 343.53 378.38
  C 344.51 375.36 345.10 371.91 346.17 368.71
  Q 346.29 368.37 345.94 368.26
  L 345.70 368.18
  Q 345.58 368.14 345.56 368.26
  Q 345.07 370.85 343.09 372.32
  Q 342.72 372.60 342.52 373.01
  Q 341.55 374.93 339.93 376.38
  Q 339.70 376.58 339.78 376.87
  Q 339.83 377.09 339.62 377.38
  Q 336.96 380.86 334.33 384.37
  C 333.03 386.11 330.93 388.17 329.39 390.24
  C 325.48 395.53 320.00 400.74 314.76 403.34
  C 309.38 406.01 305.62 404.61 304.33 398.60
  C 302.85 391.73 303.07 385.40 304.42 378.50
  Q 307.29 363.77 312.67 349.76
  Q 322.69 323.68 338.96 300.96
  C 345.34 292.06 353.40 282.93 364.15 277.78
  Q 364.84 277.45 365.54 277.16
  Q 372.06 274.52 379.01 273.77
  Q 379.53 273.72 379.44 273.13
  Q 379.36 272.64 379.62 272.23
  Q 380.84 270.32 381.62 268.26
  Q 381.86 267.66 382.16 267.48
  Q 382.43 267.33 382.73 267.34
  Q 383.19 267.35 383.55 267.05
  Q 385.22 265.68 387.27 264.93
  A 0.23 0.23 0.0 0 1 387.57 265.22
  Q 382.34 281.48 377.17 297.74
  Q 366.54 331.17 358.05 365.22
  Q 356.88 369.92 356.68 373.96
  A 1.70 1.70 0.0 0 0 359.52 375.31
  Q 369.04 366.77 376.10 356.36
  Q 376.21 356.20 376.39 356.20
  Q 376.71 356.20 376.69 356.52
  Q 376.64 357.15 377.13 357.90
  Q 379.17 361.01 376.16 363.17
  Q 375.92 363.35 375.84 363.64
  Z
  M 335.47 374.79
  C 335.85 373.79 337.62 372.30 338.01 371.76
  C 344.13 363.18 349.09 353.05 352.20 342.98
  Q 360.03 317.62 367.52 292.16
  Q 367.65 291.74 367.20 291.71
  Q 362.40 291.37 357.84 292.66
  C 356.98 292.90 356.23 293.61 355.20 293.71
  Q 354.83 293.75 354.54 294.00
  Q 354.21 294.28 353.60 294.59
  C 346.29 298.23 341.34 305.51 337.25 313.20
  Q 324.96 336.33 319.93 362.04
  C 318.76 368.02 317.97 373.05 318.69 380.12
  Q 318.74 380.61 319.06 381.00
  Q 319.53 381.59 319.68 382.35
  A 1.15 1.12 -78.9 0 0 320.15 383.07
  C 322.24 384.54 324.43 383.89 326.30 383.13
  Q 326.67 382.98 326.97 382.69
  C 327.97 381.72 329.38 381.33 330.30 380.46
  C 332.12 378.75 334.88 376.32 335.47 374.79
  Z"
/>
<path fill="#ffffff" d="
  M 727.69 265.66
  L 729.28 282.22
  Q 727.24 281.93 726.76 279.00
  Q 725.74 272.81 727.69 265.66
  Z"
/>
<path fill="#ffffff" d="
  M 335.47 374.79
  C 334.88 376.32 332.12 378.75 330.30 380.46
  C 329.38 381.33 327.97 381.72 326.97 382.69
  Q 326.67 382.98 326.30 383.13
  C 324.43 383.89 322.24 384.54 320.15 383.07
  A 1.15 1.12 -78.9 0 1 319.68 382.35
  Q 319.53 381.59 319.06 381.00
  Q 318.74 380.61 318.69 380.12
  C 317.97 373.05 318.76 368.02 319.93 362.04
  Q 324.96 336.33 337.25 313.20
  C 341.34 305.51 346.29 298.23 353.60 294.59
  Q 354.21 294.28 354.54 294.00
  Q 354.83 293.75 355.20 293.71
  C 356.23 293.61 356.98 292.90 357.84 292.66
  Q 362.40 291.37 367.20 291.71
  Q 367.65 291.74 367.52 292.16
  Q 360.03 317.62 352.20 342.98
  C 349.09 353.05 344.13 363.18 338.01 371.76
  C 337.62 372.30 335.85 373.79 335.47 374.79
  Z"
/>
<path fill="#ff446f" d="
  M 293.88 367.26
  Q 293.92 368.02 293.69 368.50
  C 286.73 383.45 276.73 399.85 264.12 411.37
  C 254.64 420.03 237.24 427.05 233.58 407.48
  Q 232.47 401.54 232.79 395.50
  Q 233.28 386.55 236.54 373.03
  Q 241.73 351.54 251.90 331.94
  C 258.40 319.42 266.72 306.56 278.11 298.33
  C 283.04 294.77 293.42 289.31 299.12 293.87
  C 306.06 299.42 306.94 311.09 306.31 319.26
  Q 304.38 344.12 294.28 366.89
  Q 294.22 367.03 294.13 367.08
  Q 294.07 367.11 294.01 367.12
  Q 293.88 367.15 293.88 367.26
  Z
  M 251.22 403.81
  L 254.04 407.04
  Q 254.37 407.43 254.88 407.42
  L 259.09 407.34
  Q 259.52 407.33 259.73 406.95
  Q 260.13 406.24 260.98 406.24
  A 1.30 1.28 24.3 0 0 261.82 405.93
  Q 268.90 399.81 273.51 390.76
  Q 281.03 376.01 284.77 361.25
  Q 288.93 344.85 290.13 327.99
  C 290.71 319.92 291.31 311.66 286.07 305.18
  A 1.31 1.29 -14.6 0 0 285.27 304.72
  C 281.45 304.10 277.68 305.30 275.06 308.26
  Q 270.51 313.39 267.09 319.33
  C 255.45 339.57 250.32 363.16 248.92 386.26
  Q 248.35 395.71 250.00 400.26
  Q 250.65 402.07 250.86 403.08
  Q 250.94 403.49 251.22 403.81
  Z"
/>
<path fill="#ff446f" d="
  M 46.40 344.93
  C 32.76 371.23 23.18 399.94 18.73 429.24
  Q 16.18 446.03 17.57 462.91
  C 18.21 470.64 22.29 482.35 31.09 484.20
  C 49.62 488.10 65.64 456.33 73.31 444.07
  A 1.28 1.28 0.0 0 1 75.39 443.94
  L 75.57 444.15
  Q 77.26 446.23 76.07 448.64
  Q 66.50 468.05 56.00 479.60
  C 47.79 488.63 34.84 499.99 21.66 497.53
  C 0.17 493.52 -0.67 461.38 1.01 445.25
  C 3.85 417.84 11.69 391.91 23.50 367.14
  C 35.27 342.42 51.12 316.26 74.31 300.57
  C 81.92 295.42 91.74 292.68 100.98 295.40
  Q 107.27 297.26 113.43 299.01
  A 0.69 0.69 0.0 0 1 113.90 299.90
  Q 105.69 324.45 101.40 349.99
  A 0.44 0.44 0.0 0 1 101.05 350.35
  L 96.81 351.29
  Q 96.57 351.34 96.62 351.10
  Q 100.21 334.55 100.70 320.00
  C 100.85 315.58 99.88 309.61 97.01 306.22
  C 91.30 299.48 81.82 303.64 75.78 308.08
  C 63.32 317.23 53.45 331.35 46.40 344.93
  Z"
/>
<path fill="#ffffff" d="
  M 254.04 407.04
  L 251.22 403.81
  Q 250.94 403.49 250.86 403.08
  Q 250.65 402.07 250.00 400.26
  Q 248.35 395.71 248.92 386.26
  C 250.32 363.16 255.45 339.57 267.09 319.33
  Q 270.51 313.39 275.06 308.26
  C 277.68 305.30 281.45 304.10 285.27 304.72
  A 1.31 1.29 -14.6 0 1 286.07 305.18
  C 291.31 311.66 290.71 319.92 290.13 327.99
  Q 288.93 344.85 284.77 361.25
  Q 281.03 376.01 273.51 390.76
  Q 268.90 399.81 261.82 405.93
  A 1.30 1.28 24.3 0 1 260.98 406.24
  Q 260.13 406.24 259.73 406.95
  Q 259.52 407.33 259.09 407.34
  L 254.88 407.42
  Q 254.37 407.43 254.04 407.04
  Z"
/>
<path fill="#ff446f" d="
  M 731.13 306.80
  Q 730.57 391.68 687.97 462.75
  C 630.12 559.24 524.48 614.99 411.98 610.06
  C 332.32 606.57 257.74 571.35 203.42 513.38
  C 186.97 495.82 173.87 477.77 160.51 454.51
  Q 158.38 450.81 155.26 443.97
  Q 162.08 446.23 168.94 447.81
  Q 169.44 447.92 170.18 448.74
  Q 170.61 449.21 171.06 450.01
  C 206.20 512.56 263.27 559.65 330.97 582.98
  C 417.97 612.95 515.04 599.72 590.72 548.69
  C 668.62 496.16 715.65 410.04 719.37 316.12
  A 2.21 2.21 0.0 0 1 720.31 314.39
  L 731.13 306.80
  Z"
/>
<path fill="#ff446f" d="
  M 220.63 311.26
  L 220.60 310.99
  Q 220.58 310.84 220.67 310.73
  Q 221.32 309.97 222.31 310.42
  A 0.19 0.19 0.0 0 0 222.58 310.31
  Q 222.63 310.13 222.66 309.93
  Q 222.68 309.78 222.82 309.72
  Q 227.53 307.80 231.26 307.72
  Q 237.74 307.58 238.51 314.26
  Q 239.36 321.73 234.72 326.98
  Q 230.69 331.54 225.13 328.59
  Q 224.72 328.37 224.60 327.92
  Q 224.46 327.45 224.17 327.74
  A 0.37 0.36 41.9 0 1 223.68 327.76
  L 221.63 326.00
  Q 221.25 325.68 220.76 325.69
  Q 220.25 325.70 219.93 325.28
  Q 219.58 324.82 219.01 324.72
  Q 216.46 324.28 213.91 324.68
  A 1.22 1.21 14.5 0 0 213.12 325.14
  Q 212.69 325.69 211.95 325.83
  Q 211.51 325.91 211.17 326.20
  C 205.60 331.12 202.23 336.89 199.25 343.77
  Q 187.58 370.65 183.90 398.12
  Q 183.10 404.10 183.71 411.87
  C 183.83 413.27 184.54 414.62 184.73 416.11
  A 1.52 1.47 -71.3 0 0 185.14 416.98
  Q 185.74 417.61 185.76 418.47
  Q 185.78 418.94 186.20 419.16
  C 196.02 424.22 213.49 402.06 218.30 395.53
  A 0.47 0.47 0.0 0 1 219.15 395.76
  L 219.72 401.31
  Q 219.78 401.83 219.44 402.24
  Q 210.16 413.55 205.26 418.51
  C 199.71 424.12 182.15 441.26 173.52 436.70
  C 163.64 431.47 169.85 402.39 172.18 393.73
  C 176.32 378.34 182.39 362.81 189.51 348.95
  C 196.18 335.99 204.57 322.34 216.37 313.38
  Q 217.54 312.49 218.28 312.17
  Q 218.64 312.01 218.88 311.70
  Q 219.43 311.00 220.38 311.45
  Q 220.68 311.58 220.63 311.26
  Z"
/>
<path fill="#ff446f" d="
  M 539.98 568.16
  C 406.23 624.32 253.41 574.79 179.50 449.75
  Q 179.06 449.01 179.93 449.01
  L 187.60 449.02
  Q 188.55 449.02 189.09 449.81
  C 191.89 453.96 194.59 458.70 197.22 462.45
  Q 225.88 503.30 266.60 532.09
  C 271.40 535.49 276.74 538.59 281.93 541.73
  Q 331.57 571.78 388.82 579.51
  C 454.59 588.39 520.11 573.55 576.12 538.14
  C 606.86 518.71 633.48 492.62 654.38 462.91
  Q 656.39 460.05 658.70 456.23
  Q 660.76 452.83 662.84 449.44
  Q 698.68 390.98 703.37 322.24
  A 0.43 0.43 0.0 0 1 703.64 321.87
  L 712.75 318.44
  A 0.12 0.12 0.0 0 1 712.91 318.56
  Q 709.02 394.10 669.00 457.82
  Q 666.79 461.33 664.58 464.83
  C 659.68 472.60 652.52 481.63 648.56 486.56
  C 621.00 520.86 581.23 550.84 539.98 568.16
  Z"
/>
<path fill="#ff446f" d="
  M 145.60 422.62
  Q 145.42 422.74 145.27 422.79
  Q 144.99 422.87 144.85 423.12
  C 137.99 434.83 125.75 450.83 112.02 454.54
  C 96.65 458.70 93.64 440.39 94.80 429.75
  Q 99.57 385.92 124.22 349.50
  Q 124.62 348.90 125.06 348.31
  Q 125.71 348.10 126.10 347.60
  C 133.00 338.50 144.01 327.37 156.30 327.23
  C 161.27 327.17 163.95 331.32 165.80 335.10
  Q 166.53 336.59 166.89 338.04
  Q 168.97 346.36 168.22 355.01
  Q 165.11 390.87 145.97 421.25
  Q 145.49 422.01 145.60 422.62
  Z
  M 126.76 358.46
  C 117.17 377.15 112.38 399.13 110.78 419.95
  Q 110.06 429.44 113.23 438.41
  C 115.12 443.76 120.41 443.25 124.15 440.37
  C 132.67 433.82 138.09 421.81 141.37 411.92
  Q 141.92 411.73 142.09 411.26
  C 148.81 392.80 152.86 371.25 152.36 352.49
  C 152.26 348.75 151.15 343.47 148.45 340.71
  C 144.80 336.98 138.58 341.53 136.03 344.50
  Q 130.35 351.11 126.76 358.46
  Z"
/>
<path fill="#ffffff" d="
  M 141.37 411.92
  Q 138.46 403.38 135.71 394.71
  Q 130.15 377.18 126.76 358.46
  Q 130.35 351.11 136.03 344.50
  C 138.58 341.53 144.80 336.98 148.45 340.71
  C 151.15 343.47 152.26 348.75 152.36 352.49
  C 152.86 371.25 148.81 392.80 142.09 411.26
  Q 141.92 411.73 141.37 411.92
  Z"
/>
</svg>
