<?xml version="1.0" encoding="UTF-8" standalone="no"?>
<!DOCTYPE svg PUBLIC "-//W3C//DTD SVG 1.1//EN" "http://www.w3.org/Graphics/SVG/1.1/DTD/svg11.dtd">
<svg xmlns="http://www.w3.org/2000/svg" version="1.1" viewBox="0.00 0.00 872.00 612.00">
<path fill="#eb466d" d="
  M 222.85 94.60
  C 163.69 151.36 130.96 231.93 133.47 314.01
  C 133.52 315.76 133.55 316.68 132.17 317.96
  Q 127.38 322.40 123.33 327.51
  Q 123.13 327.76 123.11 327.45
  Q 116.96 230.89 165.31 149.31
  C 185.44 115.36 214.09 83.62 246.84 59.93
  C 402.43 -52.58 620.33 2.99 702.63 176.53
  Q 702.84 176.98 702.34 176.89
  L 689.31 174.40
  A 1.47 1.47 0.0 0 1 688.26 173.62
  C 640.95 80.95 549.43 20.17 445.50 13.62
  C 362.96 8.41 282.37 37.49 222.85 94.60
  Z"
/>
<path fill="#eb466d" d="
  M 280.89 66.64
  C 197.30 117.29 147.53 208.77 148.02 306.34
  A 0.56 0.55 74.5 0 1 147.76 306.81
  L 140.64 311.17
  Q 140.44 311.29 140.44 311.06
  Q 139.15 216.54 192.17 140.17
  C 240.72 70.26 319.07 26.40 403.37 19.35
  C 518.56 9.71 628.82 70.73 681.68 173.83
  Q 681.84 174.14 681.48 174.16
  L 672.82 174.65
  Q 672.20 174.68 671.91 174.14
  Q 638.38 111.37 581.50 73.29
  C 491.47 13.00 374.11 10.15 280.89 66.64
  Z"
/>
<path fill="#eb466d" d="
  M 790.34 270.55
  C 796.47 270.32 811.59 248.92 815.32 243.52
  Q 815.42 243.37 815.52 243.52
  L 817.52 246.49
  A 0.50 0.49 44.5 0 1 817.53 247.03
  Q 805.66 266.78 788.92 282.41
  C 785.00 286.07 776.48 292.84 775.47 281.66
  Q 775.32 280.02 775.92 276.84
  Q 778.73 261.89 782.91 247.24
  Q 798.84 191.37 810.27 152.51
  Q 813.64 141.04 818.51 126.99
  C 825.63 106.47 841.48 80.15 863.73 73.48
  C 871.47 71.17 872.52 78.77 870.68 84.03
  C 865.20 99.66 850.53 89.40 841.05 97.06
  Q 838.48 99.13 836.34 104.82
  Q 832.55 114.89 829.58 125.25
  Q 804.00 214.26 789.85 265.62
  Q 789.35 267.42 789.71 270.01
  Q 789.78 270.57 790.34 270.55
  Z"
/>
<path fill="#eb466d" d="
  M 727.88 281.21
  C 734.98 289.28 757.57 260.13 761.33 255.44
  Q 761.46 255.27 761.54 255.47
  L 763.37 260.06
  Q 763.45 260.27 763.33 260.45
  Q 753.52 275.03 741.46 287.96
  C 736.87 292.88 715.45 312.69 711.46 296.74
  Q 710.38 292.45 710.70 288.02
  C 712.62 261.10 721.36 234.97 733.82 211.18
  C 740.57 198.32 746.96 188.01 757.15 179.40
  C 760.64 176.46 768.85 172.08 773.65 173.50
  C 781.41 175.79 779.09 189.18 777.45 194.74
  C 770.96 216.71 752.36 233.06 735.38 247.13
  C 732.67 249.38 730.40 251.16 729.41 254.76
  C 728.04 259.77 724.47 277.31 727.88 281.21
  Z
  M 758.07 215.08
  C 762.20 208.99 767.10 197.76 764.47 190.01
  C 762.09 182.94 755.25 188.48 752.48 191.99
  Q 747.15 198.74 743.92 206.75
  Q 738.03 221.34 733.92 236.53
  Q 733.38 238.56 733.30 239.06
  Q 732.76 242.64 735.52 240.30
  Q 748.34 229.41 758.07 215.08
  Z"
/>
<path fill="#eb466d" d="
  M 485.42 265.70
  Q 485.66 265.64 486.55 264.81
  C 507.33 245.27 525.03 221.72 541.31 198.40
  Q 542.56 196.60 543.44 194.54
  A 1.51 1.50 7.6 0 0 541.85 192.46
  L 531.47 193.91
  A 0.05 0.05 0.0 0 1 531.42 193.85
  L 533.53 186.42
  Q 533.60 186.18 533.86 186.16
  Q 552.21 184.58 569.20 177.53
  Q 569.94 177.23 569.84 178.02
  L 569.71 179.07
  Q 569.59 180.08 568.74 180.63
  C 558.76 187.12 552.41 193.54 545.01 203.52
  C 529.95 223.84 514.20 244.42 496.91 262.90
  Q 496.56 263.27 496.76 263.75
  C 500.94 273.53 502.55 283.67 503.46 294.32
  Q 503.56 295.53 504.31 302.64
  Q 504.75 306.85 504.69 311.10
  A 1.31 1.21 -61.0 0 0 504.85 311.76
  C 505.66 313.22 505.54 318.17 505.61 319.98
  C 505.87 326.09 506.60 332.53 507.07 338.76
  Q 508.14 352.67 511.92 366.09
  C 513.53 371.77 517.22 378.62 522.89 380.58
  Q 527.69 382.24 532.26 378.99
  C 537.86 375.01 540.62 365.10 543.06 358.57
  C 543.94 356.21 548.47 350.52 551.46 354.32
  C 554.15 357.75 550.83 365.98 548.84 369.45
  C 544.81 376.45 539.57 382.92 532.47 386.68
  C 510.41 398.37 500.56 375.64 497.22 358.75
  Q 493.97 342.27 493.25 328.75
  C 493.17 327.40 492.83 326.14 492.77 325.25
  Q 491.61 307.13 488.43 289.26
  Q 487.01 281.29 483.84 273.55
  Q 482.67 270.70 481.78 273.65
  Q 470.34 311.50 458.84 350.90
  Q 458.35 352.57 458.27 355.43
  Q 458.26 355.92 458.71 356.07
  Q 462.00 357.21 465.39 357.28
  C 467.31 357.33 469.19 356.52 471.21 356.17
  Q 471.79 356.06 471.61 356.63
  L 469.89 362.02
  A 1.93 1.92 2.1 0 1 468.49 363.31
  C 463.15 364.53 456.53 364.71 452.33 365.52
  C 442.93 367.33 433.95 372.08 425.37 376.28
  A 0.13 0.12 -7.8 0 1 425.19 376.15
  L 426.53 370.23
  Q 426.60 369.91 426.90 369.74
  C 434.39 365.66 440.17 360.92 443.74 352.97
  Q 447.69 344.21 450.52 335.03
  C 463.77 292.08 476.64 249.03 489.60 205.76
  A 0.58 0.58 0.0 0 0 489.04 205.01
  Q 488.18 205.02 486.99 205.46
  C 469.66 211.81 444.70 231.13 449.47 252.48
  Q 450.76 258.24 450.74 259.59
  Q 450.66 266.79 445.08 271.09
  Q 441.95 273.50 439.56 269.94
  C 435.17 263.41 440.90 245.44 444.02 238.86
  Q 450.10 225.98 459.07 216.31
  C 471.27 203.14 489.55 195.81 507.02 192.19
  Q 507.61 192.07 507.40 192.63
  C 498.51 216.23 491.63 240.29 484.33 264.57
  Q 483.87 266.10 485.42 265.70
  Z"
/>
<path fill="#eb466d" d="
  M 684.66 295.68
  A 1.40 1.40 0.0 0 0 686.97 296.48
  C 693.77 290.39 699.10 281.92 704.77 274.75
  Q 705.06 274.38 705.21 274.83
  Q 706.40 278.29 704.33 281.59
  C 702.34 284.75 674.81 326.24 670.52 310.49
  Q 669.84 307.97 670.44 300.99
  Q 670.79 296.83 673.86 284.87
  Q 676.67 273.95 690.06 233.10
  Q 691.59 228.43 692.66 224.34
  C 693.71 220.34 695.76 215.57 695.36 211.38
  A 1.64 1.64 0.0 0 0 693.25 209.97
  Q 689.10 211.23 686.42 213.92
  Q 676.45 223.93 668.83 235.84
  Q 660.94 248.16 656.48 264.20
  Q 649.28 290.11 641.85 317.06
  Q 641.45 318.49 640.01 318.86
  L 628.74 321.66
  Q 628.13 321.81 628.30 321.22
  Q 630.36 313.91 632.47 306.68
  Q 644.08 266.74 655.57 226.75
  Q 656.77 222.59 656.98 218.18
  A 1.19 1.19 0.0 0 0 655.23 217.07
  Q 652.57 218.47 650.50 221.01
  Q 644.18 228.75 638.68 236.73
  Q 638.20 237.43 637.83 236.67
  L 636.78 234.50
  A 1.64 1.64 0.0 0 1 636.87 232.89
  Q 646.88 217.11 659.51 204.77
  Q 664.32 200.07 670.96 197.48
  A 1.37 1.37 0.0 0 1 671.92 197.48
  Q 674.53 198.49 673.67 201.77
  C 671.27 210.91 668.22 220.00 666.21 229.22
  Q 666.09 229.76 666.62 229.92
  Q 667.79 230.28 668.40 229.38
  Q 677.96 215.27 689.28 202.53
  C 692.97 198.37 699.90 190.80 705.23 189.33
  C 717.21 186.05 708.32 213.13 707.07 217.03
  Q 699.38 240.92 691.72 264.82
  Q 686.01 282.62 684.81 289.24
  Q 684.16 292.85 684.66 295.68
  Z"
/>
<path fill="#eb466d" d="
  M 586.54 312.06
  Q 585.93 311.77 585.26 312.22
  Q 584.89 312.46 584.50 313.05
  C 581.47 317.57 553.62 357.57 547.05 340.91
  C 544.28 333.91 545.06 325.49 546.41 318.24
  C 550.62 295.58 560.89 272.53 572.83 252.90
  Q 582.36 237.24 593.41 226.41
  Q 601.38 218.59 613.17 215.18
  C 615.25 214.58 618.06 214.29 620.51 213.61
  A 1.17 1.16 5.1 0 0 621.25 213.00
  C 623.46 208.53 624.45 206.88 629.24 204.94
  Q 629.84 204.70 629.64 205.32
  Q 618.49 239.49 612.89 258.38
  Q 605.04 284.86 598.94 311.79
  Q 598.61 313.24 598.70 314.25
  A 1.55 1.55 0.0 0 0 601.05 315.45
  Q 604.38 313.44 606.98 310.47
  Q 612.89 303.69 617.83 296.78
  Q 618.46 295.90 618.87 296.90
  L 619.72 298.99
  Q 620.10 299.94 619.61 300.83
  C 614.80 309.46 594.03 337.89 583.18 336.72
  Q 582.66 336.67 582.35 336.24
  Q 580.78 334.05 581.53 331.49
  Q 584.19 322.47 587.04 313.19
  A 0.95 0.94 21.2 0 0 586.54 312.06
  Z
  M 608.78 231.55
  C 590.51 231.36 581.34 247.30 574.81 261.64
  Q 565.42 282.24 561.38 304.46
  C 560.60 308.75 557.45 326.74 567.21 323.47
  C 574.95 320.87 583.10 307.93 586.79 300.58
  Q 591.85 290.50 594.18 282.95
  Q 602.02 257.51 609.43 232.42
  Q 609.68 231.56 608.78 231.55
  Z"
/>
<path fill="#eb466d" d="
  M 344.46 372.04
  Q 343.53 371.66 342.77 372.80
  Q 333.47 386.64 321.60 398.34
  Q 317.81 402.07 312.93 404.14
  C 302.65 408.51 302.96 390.31 303.49 384.75
  Q 304.28 376.36 307.56 365.26
  C 315.50 338.38 328.83 311.92 347.37 290.63
  Q 357.48 279.02 371.97 274.96
  C 373.74 274.46 376.40 274.28 378.59 273.60
  Q 379.08 273.45 379.30 272.98
  C 380.37 270.70 381.08 268.36 383.32 266.97
  Q 385.20 265.80 387.26 264.94
  Q 387.84 264.70 387.65 265.29
  C 375.00 304.28 366.29 332.36 357.87 366.62
  Q 356.91 370.50 356.61 373.92
  A 1.64 1.64 0.0 0 0 359.13 375.44
  Q 362.26 373.43 364.47 370.97
  Q 370.73 364.00 375.83 356.82
  Q 376.55 355.81 377.01 356.97
  L 377.81 358.99
  A 2.40 2.39 51.2 0 1 377.57 361.22
  C 371.58 370.06 353.13 397.21 341.48 396.79
  A 1.71 1.70 -13.0 0 1 340.05 395.90
  Q 338.98 393.91 339.65 391.52
  Q 342.18 382.46 345.01 373.19
  Q 345.26 372.37 344.46 372.04
  Z
  M 366.65 291.54
  C 352.08 291.63 343.53 301.04 337.19 313.18
  Q 324.15 338.17 319.33 364.80
  C 318.60 368.89 315.60 386.39 324.90 383.58
  C 328.73 382.42 332.07 378.98 334.77 375.74
  C 343.07 365.78 348.39 354.63 352.24 342.30
  Q 360.06 317.19 367.44 292.60
  Q 367.76 291.53 366.65 291.54
  Z"
/>
<path fill="#eb466d" d="
  M 297.06 360.05
  C 289.66 379.13 270.16 416.28 247.64 420.15
  C 240.22 421.42 235.19 415.00 233.74 408.49
  Q 232.13 401.32 232.87 394.51
  Q 237.05 355.94 256.93 322.72
  Q 265.06 309.11 275.27 300.53
  C 282.54 294.41 296.54 286.50 302.92 298.11
  Q 307.58 306.59 306.57 318.77
  Q 304.80 340.09 297.06 360.05
  Z
  M 289.37 335.97
  C 290.07 329.64 293.22 305.37 283.41 304.46
  C 271.40 303.35 259.00 335.14 256.49 343.49
  Q 251.68 359.57 249.94 376.27
  Q 249.42 381.27 248.69 386.25
  C 248.19 389.67 249.10 398.70 251.23 403.72
  C 253.16 408.27 258.09 408.42 261.78 405.69
  C 268.88 400.45 273.24 392.01 276.82 383.67
  Q 286.67 360.72 289.37 335.97
  Z"
/>
<path fill="#eb466d" d="
  M 21.92 370.68
  C 33.82 344.38 50.04 317.61 73.26 301.27
  C 81.60 295.41 92.31 292.35 102.52 295.69
  Q 108.07 297.52 113.48 299.03
  A 0.62 0.62 0.0 0 1 113.91 299.82
  Q 105.76 324.41 101.40 349.96
  A 0.49 0.47 89.2 0 1 101.04 350.34
  L 96.87 351.29
  Q 96.66 351.34 96.70 351.13
  C 98.67 340.58 100.49 329.99 100.65 319.25
  C 100.90 301.58 88.25 298.55 75.48 308.20
  C 63.30 317.41 53.70 331.04 46.72 344.47
  Q 28.99 378.56 21.27 414.75
  C 18.08 429.75 16.14 446.97 17.61 463.11
  C 18.12 468.71 20.35 475.40 23.94 479.79
  C 30.88 488.28 42.36 483.81 49.00 477.72
  C 59.77 467.87 65.80 456.38 73.17 444.08
  A 1.36 1.36 0.0 0 1 75.42 443.96
  L 75.88 444.57
  A 3.15 3.14 38.5 0 1 76.25 447.74
  C 68.12 466.09 45.37 500.88 22.52 497.67
  C -1.79 494.25 -0.54 456.33 1.61 440.01
  Q 6.19 405.42 21.92 370.68
  Z"
/>
<path fill="#eb466d" d="
  M 510.62 586.57
  C 631.16 550.37 714.70 442.30 719.32 316.25
  Q 719.35 315.34 720.09 314.80
  L 730.98 306.97
  Q 731.16 306.83 731.16 307.06
  Q 729.92 409.89 669.06 490.56
  C 617.55 558.83 536.24 603.02 450.93 609.28
  C 332.06 618.00 221.57 559.87 162.03 456.71
  C 160.06 453.28 157.69 448.32 155.23 444.25
  Q 154.91 443.73 155.49 443.94
  Q 162.01 446.29 168.75 447.70
  Q 169.73 447.90 170.76 449.73
  C 238.11 569.11 379.90 625.82 510.62 586.57
  Z"
/>
<path fill="#eb466d" d="
  M 183.87 399.25
  C 183.30 403.59 182.01 421.86 190.67 419.85
  C 201.08 417.44 212.07 403.89 218.14 395.64
  Q 219.12 394.32 219.28 395.96
  L 219.67 400.03
  Q 219.82 401.64 218.83 402.92
  Q 208.22 416.55 194.48 428.49
  Q 188.27 433.88 180.65 436.65
  C 160.91 443.82 169.97 402.63 171.98 394.76
  Q 176.38 377.57 183.62 361.46
  C 191.83 343.22 206.55 312.77 228.30 308.05
  C 241.70 305.13 240.44 321.00 234.49 327.11
  C 225.70 336.15 220.40 318.02 210.47 326.96
  C 204.42 332.40 200.54 340.03 197.55 347.40
  Q 187.36 372.44 183.87 399.25
  Z"
/>
<path fill="#eb466d" d="
  M 491.17 584.04
  C 368.30 611.67 243.07 558.05 179.06 449.07
  Q 178.98 448.93 179.14 448.93
  L 188.39 449.09
  Q 188.73 449.10 188.90 449.39
  Q 199.70 467.19 211.85 481.62
  Q 272.29 553.42 362.25 574.72
  C 477.87 602.09 600.28 551.75 662.56 450.31
  Q 698.49 391.80 703.37 322.32
  Q 703.39 322.01 703.68 321.90
  L 712.78 318.42
  A 0.16 0.16 0.0 0 1 713.00 318.58
  Q 707.95 407.58 655.48 477.70
  C 615.61 530.97 556.15 569.42 491.17 584.04
  Z"
/>
<path fill="#eb466d" d="
  M 95.85 421.45
  C 99.54 396.70 109.10 372.36 123.14 351.62
  C 129.86 341.68 139.62 331.23 151.00 327.74
  Q 161.59 324.49 165.82 335.01
  C 169.60 344.42 168.73 353.57 167.11 364.64
  Q 164.17 384.68 155.72 403.24
  C 148.26 419.62 129.94 451.75 110.28 454.98
  C 104.96 455.85 99.87 453.50 97.59 448.63
  C 93.59 440.13 94.32 431.70 95.85 421.45
  Z
  M 151.85 368.40
  C 152.66 360.71 153.43 350.70 150.28 343.49
  C 147.39 336.87 140.76 339.60 137.06 343.31
  C 127.64 352.76 120.71 369.94 117.26 382.61
  Q 112.91 398.63 111.76 411.00
  C 111.30 415.96 110.58 420.87 110.68 425.01
  Q 110.86 433.09 113.05 438.46
  C 115.08 443.44 120.30 443.36 124.02 440.56
  C 132.86 433.89 138.99 419.95 142.56 409.75
  Q 149.61 389.63 151.85 368.40
  Z"
/>
</svg>
