<?xml version="1.0" encoding="UTF-8" standalone="no"?>
<!DOCTYPE svg PUBLIC "-//W3C//DTD SVG 1.1//EN" "http://www.w3.org/Graphics/SVG/1.1/DTD/svg11.dtd">
<svg xmlns="http://www.w3.org/2000/svg" version="1.1" viewBox="0.00 0.00 161.00 160.00">
<path fill="#eb466d" d="
  M 106.16 116.18
  A 1.96 1.96 0.0 0 0 104.31 116.49
  C 80.70 135.02 46.07 133.85 23.26 113.89
  Q 7.50 100.09 2.77 81.04
  Q 0.20 70.68 0.78 61.44
  Q 2.01 41.86 13.62 26.38
  C 21.34 16.09 32.40 7.80 45.11 3.65
  Q 60.79 -1.46 76.99 1.44
  Q 93.09 4.33 106.02 14.98
  Q 127.17 32.40 129.80 60.74
  Q 130.10 64.03 130.04 66.43
  Q 130.00 67.59 129.55 72.08
  Q 127.73 90.23 116.46 104.47
  Q 115.79 105.32 116.55 106.09
  Q 136.35 126.07 156.62 146.12
  C 159.94 149.41 161.64 153.59 157.72 157.51
  C 153.69 161.54 149.70 159.45 146.39 156.12
  Q 125.86 135.46 107.11 116.77
  Q 106.71 116.36 106.16 116.18
  Z
  M 115.76 65.00
  A 50.43 50.43 0.0 0 0 65.33 14.57
  A 50.43 50.43 0.0 0 0 14.90 65.00
  A 50.43 50.43 0.0 0 0 65.33 115.43
  A 50.43 50.43 0.0 0 0 115.76 65.00
  Z"
/>
</svg>
